<svg id="cash3" xmlns="http://www.w3.org/2000/svg" width="31.918" height="22.478" viewBox="0 0 31.918 22.478">
  <path id="Path_581" data-name="Path 581" d="M33.17,25.024H3.247a.9.9,0,1,0,0,1.789H33.17a.9.9,0,1,0,0-1.789Z" transform="translate(-2.25 -7.402)" fill="#171d5b"/>
  <path id="Path_582" data-name="Path 582" d="M33.17,28.4H3.247a.9.9,0,1,0,0,1.789H33.17a.9.9,0,1,0,0-1.789Z" transform="translate(-2.25 -7.71)" fill="#171d5b"/>
  <path id="Path_583" data-name="Path 583" d="M31.667,5.632H4.751a2.39,2.39,0,0,0-2.5,2.243v11.36a2.39,2.39,0,0,0,2.5,2.243H31.667a2.39,2.39,0,0,0,2.5-2.243V7.875A2.39,2.39,0,0,0,31.667,5.632ZM8.092,19.433H5.527a.9.9,0,1,1,0-1.789H8.092a.9.9,0,1,1,0,1.789Zm0-9.967H5.527a.953.953,0,0,1-1-.895.953.953,0,0,1,1-.895H8.092a.953.953,0,0,1,1,.895A.953.953,0,0,1,8.092,9.466Zm10.117,9.2c-3.142,0-5.7-2.294-5.7-5.112s2.558-5.112,5.7-5.112,5.7,2.294,5.7,5.112S21.351,18.666,18.209,18.666Zm12.682.767H28.326a.9.9,0,1,1,0-1.789H30.89a.9.9,0,1,1,0,1.789Zm0-9.967H28.326a.953.953,0,0,1-1-.895.953.953,0,0,1,1-.895H30.89a.953.953,0,0,1,1,.895A.953.953,0,0,1,30.89,9.466Z" transform="translate(-2.25 -5.632)" fill="#171d5b"/>
  <path id="Path_584" data-name="Path 584" d="M21.825,14.144a3.6,3.6,0,0,1-3.776,3.386,3.6,3.6,0,0,1-3.776-3.386,3.6,3.6,0,0,1,3.776-3.386A3.6,3.6,0,0,1,21.825,14.144Z" transform="translate(-2.091 -6.1)" fill="#171d5b"/>
</svg>
