<svg id="cash1" xmlns="http://www.w3.org/2000/svg" width="32.287" height="22.478" viewBox="0 0 32.287 22.478">
  <path id="Path_581" data-name="Path 581" d="M33.528,25.024H3.259a.9.9,0,1,0,0,1.789H33.528a.9.9,0,1,0,0-1.789Z" transform="translate(-2.25 -7.402)" fill="#2699fb"/>
  <path id="Path_582" data-name="Path 582" d="M33.528,28.4H3.259a.9.9,0,1,0,0,1.789H33.528a.9.9,0,1,0,0-1.789Z" transform="translate(-2.25 -7.71)" fill="#2699fb"/>
  <path id="Path_583" data-name="Path 583" d="M32.008,5.632H4.78A2.407,2.407,0,0,0,2.25,7.875v11.36a2.407,2.407,0,0,0,2.53,2.243H32.008a2.407,2.407,0,0,0,2.53-2.243V7.875A2.407,2.407,0,0,0,32.008,5.632ZM8.16,19.433H5.565a.9.9,0,1,1,0-1.789H8.16a.9.9,0,1,1,0,1.789Zm0-9.967H5.565a.96.96,0,0,1-1.009-.895.96.96,0,0,1,1.009-.895H8.16a.96.96,0,0,1,1.009.895A.96.96,0,0,1,8.16,9.466Zm10.234,9.2c-3.178,0-5.766-2.294-5.766-5.112s2.587-5.112,5.766-5.112,5.766,2.294,5.766,5.112S21.572,18.666,18.394,18.666Zm12.828.767H28.628a.9.9,0,1,1,0-1.789h2.595a.9.9,0,1,1,0,1.789Zm0-9.967H28.628a.96.96,0,0,1-1.009-.895.96.96,0,0,1,1.009-.895h2.595a.96.96,0,0,1,1.009.895A.96.96,0,0,1,31.222,9.466Z" transform="translate(-2.25 -5.632)" fill="#2699fb"/>
  <path id="Path_584" data-name="Path 584" d="M21.913,14.144a3.623,3.623,0,0,1-3.82,3.386,3.623,3.623,0,0,1-3.82-3.386,3.623,3.623,0,0,1,3.82-3.386A3.623,3.623,0,0,1,21.913,14.144Z" transform="translate(-1.95 -6.1)" fill="#2699fb"/>
</svg>
