<svg id="dash-logo" xmlns="http://www.w3.org/2000/svg" width="113.461" height="55.324" viewBox="0 0 113.461 55.324">
  <g id="Layer_2" data-name="Layer 2">
    <path id="Path_443" data-name="Path 443" d="M.7,118.32H9.428v1.433H2.384v4.015h6.58V125.2H2.384v4.369H9.5V131H.7Z" transform="translate(-0.449 -75.943)" fill="#fff"/>
    <path id="Path_444" data-name="Path 444" d="M54.17,137.88H59.3v1.433H54.17Z" transform="translate(-34.714 -88.498)" fill="#fff"/>
    <path id="Path_445" data-name="Path 445" d="M105.477,121.47a2.612,2.612,0,0,0-.984-1.97,3.567,3.567,0,0,0-2.155-.612,5.127,5.127,0,0,0-1.046.108,2.817,2.817,0,0,0-.911.358,1.858,1.858,0,0,0-.639.663,2.062,2.062,0,0,0-.241,1.035,1.312,1.312,0,0,0,.359.946,2.515,2.515,0,0,0,.923.591,7.557,7.557,0,0,0,1.3.383c.485.1.984.208,1.491.326s1.006.258,1.491.415a4.742,4.742,0,0,1,1.293.645,3.068,3.068,0,0,1,.916,1.035,3.573,3.573,0,0,1-.108,3.274,3.7,3.7,0,0,1-1.16,1.164,5.276,5.276,0,0,1-1.588.666,7.563,7.563,0,0,1-3.76-.054,4.915,4.915,0,0,1-1.667-.813,3.842,3.842,0,0,1-1.135-1.39,4.387,4.387,0,0,1-.427-1.984h1.595a2.823,2.823,0,0,0,.312,1.368,2.778,2.778,0,0,0,.815.946,3.366,3.366,0,0,0,1.171.552,5.513,5.513,0,0,0,1.39.176,6.26,6.26,0,0,0,1.146-.107,3.239,3.239,0,0,0,1.034-.358,2.085,2.085,0,0,0,.747-.7,2.051,2.051,0,0,0,.284-1.132,1.577,1.577,0,0,0-.359-1.074,2.514,2.514,0,0,0-.916-.663,6.752,6.752,0,0,0-1.293-.426c-.485-.111-.981-.222-1.491-.326a15.382,15.382,0,0,1-1.491-.383,5.161,5.161,0,0,1-1.3-.591,2.869,2.869,0,0,1-.919-.938,2.666,2.666,0,0,1-.359-1.433,3.271,3.271,0,0,1,1.437-2.8,4.65,4.65,0,0,1,1.473-.673,6.521,6.521,0,0,1,1.692-.218,6.771,6.771,0,0,1,1.8.229,3.991,3.991,0,0,1,1.437.716,3.619,3.619,0,0,1,.991,1.246,4.377,4.377,0,0,1,.409,1.791Z" transform="translate(-62.435 -75.397)" fill="#fff"/>
    <path id="Path_446" data-name="Path 446" d="M154.16,124.152a8.116,8.116,0,0,1,.381-2.486,6.281,6.281,0,0,1,1.146-2.113,5.544,5.544,0,0,1,1.9-1.465,6.651,6.651,0,0,1,5.287,0,5.615,5.615,0,0,1,1.9,1.465,6.334,6.334,0,0,1,1.142,2.113,8.215,8.215,0,0,1,0,4.971,6.3,6.3,0,0,1-1.142,2.113,5.622,5.622,0,0,1-1.9,1.468,6.651,6.651,0,0,1-5.287,0,5.554,5.554,0,0,1-1.9-1.468,6.245,6.245,0,0,1-1.146-2.113A8.1,8.1,0,0,1,154.16,124.152Zm1.684,0a7.277,7.277,0,0,0,.248,1.885,5.114,5.114,0,0,0,.783,1.671,3.947,3.947,0,0,0,1.365,1.193,4.6,4.6,0,0,0,3.972,0,4.023,4.023,0,0,0,1.365-1.193,5.108,5.108,0,0,0,.779-1.673,7.283,7.283,0,0,0,0-3.768,5.09,5.09,0,0,0-.779-1.669,4,4,0,0,0-1.365-1.2,4.6,4.6,0,0,0-3.972,0,3.948,3.948,0,0,0-1.365,1.2,5.1,5.1,0,0,0-.783,1.669A7.277,7.277,0,0,0,155.844,124.152Z" transform="translate(-98.791 -75.443)" fill="#fff"/>
    <path id="Path_447" data-name="Path 447" d="M216.38,124.151a8.116,8.116,0,0,1,.381-2.486,6.333,6.333,0,0,1,1.142-2.113,5.594,5.594,0,0,1,1.9-1.465,6.64,6.64,0,0,1,5.283,0,5.544,5.544,0,0,1,1.9,1.465,6.28,6.28,0,0,1,1.146,2.113,8.305,8.305,0,0,1,0,4.971,6.245,6.245,0,0,1-1.146,2.113,5.554,5.554,0,0,1-1.9,1.468,6.64,6.64,0,0,1-5.283,0,5.6,5.6,0,0,1-1.9-1.468,6.3,6.3,0,0,1-1.142-2.113,8.1,8.1,0,0,1-.381-2.486Zm1.684,0a7.279,7.279,0,0,0,.248,1.885,5.108,5.108,0,0,0,.779,1.672,3.991,3.991,0,0,0,1.365,1.193,4.6,4.6,0,0,0,3.972,0,3.947,3.947,0,0,0,1.365-1.193,5.116,5.116,0,0,0,.783-1.673,7.283,7.283,0,0,0,0-3.768,5.1,5.1,0,0,0-.783-1.669,3.947,3.947,0,0,0-1.365-1.2,4.6,4.6,0,0,0-3.972,0,3.947,3.947,0,0,0-1.365,1.2,5.089,5.089,0,0,0-.779,1.669A7.276,7.276,0,0,0,218.064,124.151Z" transform="translate(-138.663 -75.442)" fill="#fff"/>
    <path id="Path_448" data-name="Path 448" d="M280.66,118.32h2.306l3.99,10.63,4.008-10.612h2.306v12.629h-1.595V120.444h-.036l-3.951,10.5h-1.437l-3.951-10.5h-.036v10.5h-1.6Z" transform="translate(-179.856 -75.943)" fill="#fff"/>
    <path id="Path_449" data-name="Path 449" d="M9.058,27.766A3.771,3.771,0,0,0,6.113,29.2a8.126,8.126,0,0,0-1.077,4.656V44.23H0V33.79c0-3.728.862-6.418,2.661-8.392A8.833,8.833,0,0,1,8.7,22.748a10.786,10.786,0,1,1,.359,5.018ZM25.2,24.5a5.692,5.692,0,0,0-5.894-5.877A5.673,5.673,0,0,0,13.587,24.5a5.674,5.674,0,0,0,5.718,5.773A5.682,5.682,0,0,0,25.2,24.5Z" transform="translate(0 -8.658)" fill="#fff"/>
    <path id="Path_450" data-name="Path 450" d="M151,49.35h7.079v5.014H151Z" transform="translate(-96.766 -31.675)" fill="#fff"/>
    <path id="Path_451" data-name="Path 451" d="M168.66,49.35h7.083v5.014H168.66Z" transform="translate(-108.083 -31.675)" fill="#fff"/>
    <path id="Path_452" data-name="Path 452" d="M186.38,49.35h7.083v5.014H186.38Z" transform="translate(-119.439 -31.675)" fill="#fff"/>
    <path id="Path_453" data-name="Path 453" d="M204.09,17.675h7.837V4.3h5.028V17.675h3.667c2.155,0,4.745-.971,4.745-4.481V4.3H230.4v8.9c.072,3.259,1.835,4.839,4.529,4.839,2.841,0,4.31-1.759,4.31-4.516V0h5.014V12.868c0,6.884-3.057,10.182-9.313,10.182-2.73,0-5.5-.788-7.151-3.442a10.027,10.027,0,0,1-7.155,3.084H204.108Z" transform="translate(-130.788)" fill="#fff"/>
    <path id="Path_454" data-name="Path 454" d="M111.447,22.168l.018-8.671h-5.028v8.671h-2.119c-3.232,0-5.826-1.759-5.826-5.093,0-3.044,2.841-5.054,5.826-5.054h1.106V7c-6.993.129-11.964,3.9-11.964,10.061,0,7.206,5.463,10.111,12.33,10.111h.575c-.079.627-.23,6.175-.453,6.561a2.268,2.268,0,0,1-1.052.949,7.517,7.517,0,0,1-3.024.412A17,17,0,0,1,96.6,34.22l.359,5.054a16.8,16.8,0,0,0,5.247.863c5.132-.007,7.665-2.016,8.688-5.2a10.4,10.4,0,0,0,.295-1.164c.1-.494.162-6.064.2-6.6h3.412V22.157Z" transform="translate(-59.892 -4.493)" fill="#fff"/>
    <rect id="Rectangle_259" data-name="Rectangle 259" width="5.115" height="5.1" transform="translate(49.418 0.047)" fill="#eea820"/>
  </g>
</svg>
