<svg id="Layer_2" data-name="Layer 2" xmlns="http://www.w3.org/2000/svg" width="340.2" height="166.353" viewBox="0 0 340.2 166.353">
  <g id="Layer_2-2" data-name="Layer 2">
    <path id="Path_443" data-name="Path 443" d="M.7,118.32H26.869v4.308H5.751V134.7H25.48v4.308H5.751v13.138H27.074v4.308H.7Z" transform="translate(0.054 9.102)" fill="#fff"/>
    <path id="Path_444" data-name="Path 444" d="M54.17,137.88H69.538v4.308H54.17Z" transform="translate(4.167 10.606)" fill="#fff"/>
    <path id="Path_445" data-name="Path 445" d="M121.564,129.5a7.862,7.862,0,0,0-2.951-5.923,10.672,10.672,0,0,0-6.462-1.842,15.333,15.333,0,0,0-3.137.324,8.432,8.432,0,0,0-2.732,1.076,5.579,5.579,0,0,0-1.917,1.992,6.214,6.214,0,0,0-.722,3.112,3.952,3.952,0,0,0,1.077,2.843,7.538,7.538,0,0,0,2.768,1.777,22.615,22.615,0,0,0,3.9,1.152c1.454.3,2.951.625,4.469.98s3.015.775,4.469,1.249a14.2,14.2,0,0,1,3.877,1.938,9.218,9.218,0,0,1,2.746,3.112,10.769,10.769,0,0,1-.323,9.843,11.124,11.124,0,0,1-3.478,3.5,15.8,15.8,0,0,1-4.76,2,22.615,22.615,0,0,1-11.275-.161,14.721,14.721,0,0,1-5-2.445,11.545,11.545,0,0,1-3.4-4.178,13.225,13.225,0,0,1-1.282-5.966h4.782a8.508,8.508,0,0,0,.937,4.114,8.346,8.346,0,0,0,2.445,2.843A10.08,10.08,0,0,0,109.1,152.5a16.488,16.488,0,0,0,4.168.528,18.719,18.719,0,0,0,3.435-.323,9.693,9.693,0,0,0,3.1-1.077,6.257,6.257,0,0,0,2.24-2.1,6.181,6.181,0,0,0,.851-3.4,4.749,4.749,0,0,0-1.077-3.231,7.539,7.539,0,0,0-2.746-1.992,20.2,20.2,0,0,0-3.877-1.282c-1.454-.334-2.94-.668-4.469-.98a46.016,46.016,0,0,1-4.469-1.152,15.453,15.453,0,0,1-3.909-1.777,8.615,8.615,0,0,1-2.757-2.822,8.034,8.034,0,0,1-1.077-4.308,9.843,9.843,0,0,1,4.308-8.432,13.924,13.924,0,0,1,4.415-2.025,19.5,19.5,0,0,1,5.072-.657,20.246,20.246,0,0,1,5.385.689,11.954,11.954,0,0,1,4.308,2.154,10.877,10.877,0,0,1,2.972,3.748,13.192,13.192,0,0,1,1.228,5.385Z" transform="translate(7.494 9.036)" fill="#fff"/>
    <path id="Path_446" data-name="Path 446" d="M154.16,137.42a24.468,24.468,0,0,1,1.142-7.474,18.9,18.9,0,0,1,3.435-6.354,16.628,16.628,0,0,1,5.686-4.4,19.891,19.891,0,0,1,15.852,0,16.843,16.843,0,0,1,5.686,4.4,19.061,19.061,0,0,1,3.425,6.354,24.769,24.769,0,0,1,0,14.948,18.965,18.965,0,0,1-3.425,6.354,16.864,16.864,0,0,1-5.686,4.415,19.891,19.891,0,0,1-15.852,0,16.66,16.66,0,0,1-5.686-4.415,18.792,18.792,0,0,1-3.435-6.354,24.413,24.413,0,0,1-1.142-7.474Zm5.051,0a21.944,21.944,0,0,0,.744,5.668,15.4,15.4,0,0,0,2.347,5.026,11.846,11.846,0,0,0,4.092,3.586,13.752,13.752,0,0,0,11.911,0,12.072,12.072,0,0,0,4.092-3.586,15.378,15.378,0,0,0,2.337-5.029,21.959,21.959,0,0,0,0-11.329,15.325,15.325,0,0,0-2.337-5.018,12,12,0,0,0-4.092-3.6,13.752,13.752,0,0,0-11.911,0,11.846,11.846,0,0,0-4.092,3.6,15.345,15.345,0,0,0-2.348,5.018,21.937,21.937,0,0,0-.743,5.665Z" transform="translate(11.858 9.042)" fill="#fff"/>
    <path id="Path_447" data-name="Path 447" d="M216.38,137.42a24.467,24.467,0,0,1,1.142-7.474,19.061,19.061,0,0,1,3.425-6.354,16.778,16.778,0,0,1,5.7-4.4,19.858,19.858,0,0,1,15.842,0,16.628,16.628,0,0,1,5.686,4.4,18.9,18.9,0,0,1,3.435,6.354,25.039,25.039,0,0,1,0,14.948,18.793,18.793,0,0,1-3.435,6.354,16.66,16.66,0,0,1-5.686,4.415,19.858,19.858,0,0,1-15.842,0,16.8,16.8,0,0,1-5.7-4.415,18.965,18.965,0,0,1-3.425-6.354,24.414,24.414,0,0,1-1.142-7.474Zm5.051,0a21.943,21.943,0,0,0,.744,5.668,15.379,15.379,0,0,0,2.336,5.026A11.975,11.975,0,0,0,228.6,151.7a13.752,13.752,0,0,0,11.911,0,11.846,11.846,0,0,0,4.092-3.586,15.4,15.4,0,0,0,2.348-5.029,21.959,21.959,0,0,0,0-11.329,15.346,15.346,0,0,0-2.348-5.018,11.846,11.846,0,0,0-4.092-3.6,13.752,13.752,0,0,0-11.911,0,11.846,11.846,0,0,0-4.092,3.6,15.324,15.324,0,0,0-2.337,5.018A21.937,21.937,0,0,0,221.431,137.42Z" transform="translate(16.645 9.042)" fill="#fff"/>
    <path id="Path_448" data-name="Path 448" d="M280.66,118.32h6.914l11.965,31.963,12.018-31.909h6.914v37.972h-4.782v-31.64h-.108l-11.846,31.586h-4.308l-11.846-31.586h-.108v31.586h-4.792Z" transform="translate(21.589 9.102)" fill="#fff"/>
    <path id="Path_449" data-name="Path 449" d="M27.16,56.416c-4.2.323-7,1.831-8.831,4.308-2.38,3.231-3.231,8.411-3.231,14v31.2H0V74.53C0,63.319,2.585,55.232,7.98,49.3c4.631-5.169,12.288-7.862,18.1-7.969A32.48,32.48,0,0,1,90.7,46.821c0,18.308-15.206,32.232-32.771,32.232A32.4,32.4,0,0,1,27.16,56.416Zm48.4-9.811c0-10.134-7.323-17.672-17.672-17.672-10.026,0-17.145,7.862-17.145,17.672a17.037,17.037,0,0,0,17.145,17.36c9.962,0,17.672-7.226,17.672-17.36Z" transform="translate(0 1.038)" fill="#fff"/>
    <path id="Path_450" data-name="Path 450" d="M151,49.35h21.226V64.427H151Z" transform="translate(11.615 3.796)" fill="#fff"/>
    <path id="Path_451" data-name="Path 451" d="M168.66,49.35H189.9V64.427H168.66Z" transform="translate(12.974 3.796)" fill="#fff"/>
    <path id="Path_452" data-name="Path 452" d="M186.38,49.35h21.237V64.427H186.38Z" transform="translate(14.337 3.796)" fill="#fff"/>
    <path id="Path_453" data-name="Path 453" d="M204.09,53.146h23.5V12.923h15.077V53.146h11c6.462,0,14.226-2.918,14.226-13.472V12.923h15.077V39.674c.215,9.8,5.5,14.549,13.58,14.549,8.518,0,12.923-5.288,12.923-13.58V0H324.5V38.694c0,20.7-9.165,30.617-27.925,30.617-8.185,0-16.488-2.369-21.442-10.349a30.025,30.025,0,0,1-21.452,9.272H204.144Z" transform="translate(15.699)" fill="#fff"/>
    <path id="Path_454" data-name="Path 454" d="M147.392,52.608l.054-26.072H132.369V52.608h-6.354c-9.692,0-17.468-5.288-17.468-15.314,0-9.154,8.518-15.2,17.468-15.2h3.317V7C108.365,7.388,93.46,18.717,93.46,37.251c0,21.668,16.38,30.4,36.971,30.4h1.723c-.237,1.885-.689,18.566-1.357,19.729a6.806,6.806,0,0,1-3.155,2.854c-2.154,1.012-5.2,1.238-9.068,1.238a50.831,50.831,0,0,1-15.7-2.628l1.077,15.2c6.569,1.842,9.918,2.6,15.734,2.6,15.389-.022,22.982-6.063,26.051-15.637a31.361,31.361,0,0,0,.883-3.5c.291-1.486.485-18.232.614-19.848h10.231V52.575Z" transform="translate(7.189 0.538)" fill="#fff"/>
    <rect id="Rectangle_259" data-name="Rectangle 259" width="15.335" height="15.335" transform="translate(148.174 0.14)" fill="#eea820"/>
  </g>
</svg>
