<svg id="logo2" xmlns="http://www.w3.org/2000/svg" width="184.2" height="90.353" viewBox="0 0 184.2 90.353">
  <g id="Layer_2" data-name="Layer 2">
    <path id="Path_443" data-name="Path 443" d="M.7,118.32H14.869v2.34H3.435v6.557H14.117v2.34H3.435v7.136H14.98v2.34H.7Z" transform="translate(-0.292 -49.112)" fill="#171d5b"/>
    <path id="Path_444" data-name="Path 444" d="M54.17,137.88h8.321v2.34H54.17Z" transform="translate(-22.584 -57.231)" fill="#171d5b"/>
    <path id="Path_445" data-name="Path 445" d="M110.5,124a4.275,4.275,0,0,0-1.6-3.217,5.765,5.765,0,0,0-3.5-1,8.277,8.277,0,0,0-1.7.176,4.557,4.557,0,0,0-1.479.585,3.026,3.026,0,0,0-1.038,1.082,3.383,3.383,0,0,0-.391,1.69,2.151,2.151,0,0,0,.583,1.544,4.08,4.08,0,0,0,1.5.965,12.216,12.216,0,0,0,2.111.626c.787.164,1.6.339,2.42.532s1.633.421,2.42.679a7.682,7.682,0,0,1,2.1,1.053,5,5,0,0,1,1.487,1.69,5.865,5.865,0,0,1-.175,5.346,6.033,6.033,0,0,1-1.883,1.9,8.54,8.54,0,0,1-2.577,1.088,12.208,12.208,0,0,1-6.105-.088,7.96,7.96,0,0,1-2.706-1.328,6.266,6.266,0,0,1-1.843-2.27,7.2,7.2,0,0,1-.694-3.24h2.589a4.633,4.633,0,0,0,.507,2.234,4.529,4.529,0,0,0,1.324,1.544,5.45,5.45,0,0,0,1.9.9,8.9,8.9,0,0,0,2.257.287,10.1,10.1,0,0,0,1.86-.176,5.237,5.237,0,0,0,1.679-.585,3.165,3.165,0,0,0,1.673-2.989,2.585,2.585,0,0,0-.583-1.755,4.082,4.082,0,0,0-1.487-1.082,10.917,10.917,0,0,0-2.1-.7c-.787-.181-1.592-.363-2.42-.532a24.856,24.856,0,0,1-2.42-.626,8.354,8.354,0,0,1-2.117-.965,4.673,4.673,0,0,1-1.493-1.532,4.374,4.374,0,0,1-.583-2.34,5.351,5.351,0,0,1,2.332-4.58,7.528,7.528,0,0,1,2.391-1.1,10.528,10.528,0,0,1,2.746-.357,10.93,10.93,0,0,1,2.915.374,6.465,6.465,0,0,1,2.332,1.17,5.9,5.9,0,0,1,1.609,2.036,7.184,7.184,0,0,1,.665,2.925Z" transform="translate(-40.618 -48.759)" fill="#171d5b"/>
    <path id="Path_446" data-name="Path 446" d="M154.16,128.338a13.328,13.328,0,0,1,.618-4.059,10.276,10.276,0,0,1,1.86-3.451,9.007,9.007,0,0,1,3.079-2.392,10.739,10.739,0,0,1,8.583,0,9.123,9.123,0,0,1,3.079,2.392,10.363,10.363,0,0,1,1.854,3.451,13.493,13.493,0,0,1,0,8.119,10.31,10.31,0,0,1-1.854,3.451,9.135,9.135,0,0,1-3.079,2.4,10.739,10.739,0,0,1-8.583,0,9.025,9.025,0,0,1-3.079-2.4,10.217,10.217,0,0,1-1.86-3.451,13.3,13.3,0,0,1-.618-4.059Zm2.735,0a11.954,11.954,0,0,0,.4,3.078,8.376,8.376,0,0,0,1.271,2.73,6.42,6.42,0,0,0,2.216,1.948,7.425,7.425,0,0,0,6.449,0,6.543,6.543,0,0,0,2.216-1.948,8.365,8.365,0,0,0,1.265-2.732,11.963,11.963,0,0,0,0-6.153,8.335,8.335,0,0,0-1.265-2.726,6.5,6.5,0,0,0-2.216-1.954,7.425,7.425,0,0,0-6.449,0,6.421,6.421,0,0,0-2.216,1.954,8.346,8.346,0,0,0-1.271,2.726,11.95,11.95,0,0,0-.4,3.077Z" transform="translate(-64.27 -48.789)" fill="#171d5b"/>
    <path id="Path_447" data-name="Path 447" d="M216.38,128.337a13.328,13.328,0,0,1,.618-4.059,10.363,10.363,0,0,1,1.854-3.451,9.088,9.088,0,0,1,3.085-2.392,10.722,10.722,0,0,1,8.577,0,9.007,9.007,0,0,1,3.079,2.392,10.275,10.275,0,0,1,1.86,3.451,13.64,13.64,0,0,1,0,8.119,10.217,10.217,0,0,1-1.86,3.451,9.024,9.024,0,0,1-3.079,2.4,10.722,10.722,0,0,1-8.577,0,9.1,9.1,0,0,1-3.085-2.4A10.311,10.311,0,0,1,217,132.4a13.3,13.3,0,0,1-.618-4.059Zm2.735,0a11.954,11.954,0,0,0,.4,3.078,8.365,8.365,0,0,0,1.265,2.73A6.49,6.49,0,0,0,223,136.094a7.425,7.425,0,0,0,6.449,0,6.42,6.42,0,0,0,2.216-1.948,8.376,8.376,0,0,0,1.271-2.732,11.962,11.962,0,0,0,0-6.153,8.347,8.347,0,0,0-1.271-2.726,6.42,6.42,0,0,0-2.216-1.954,7.425,7.425,0,0,0-6.449,0,6.42,6.42,0,0,0-2.216,1.954,8.335,8.335,0,0,0-1.265,2.726A11.949,11.949,0,0,0,219.115,128.337Z" transform="translate(-90.21 -48.788)" fill="#171d5b"/>
    <path id="Path_448" data-name="Path 448" d="M280.66,118.32H284.4l6.478,17.36,6.507-17.331h3.743v20.624h-2.589V121.789h-.058l-6.414,17.156h-2.332l-6.414-17.156h-.058v17.156h-2.595Z" transform="translate(-117.008 -49.112)" fill="#171d5b"/>
    <path id="Path_449" data-name="Path 449" d="M14.706,36.8a6.11,6.11,0,0,0-4.781,2.34c-1.289,1.755-1.749,4.568-1.749,7.6V63.693H0V46.643c0-6.089,1.4-10.482,4.321-13.7a14.3,14.3,0,0,1,9.8-4.328,17.583,17.583,0,0,1,34.986,2.983,17.612,17.612,0,0,1-34.4,5.212Zm26.2-5.329a9.268,9.268,0,0,0-9.569-9.6c-5.429,0-9.283,4.27-9.283,9.6A9.239,9.239,0,0,0,31.341,40.9a9.251,9.251,0,0,0,9.569-9.429Z" transform="translate(0 -5.599)" fill="#171d5b"/>
    <path id="Path_450" data-name="Path 450" d="M151,49.35h11.493v8.189H151Z" transform="translate(-62.953 -20.484)" fill="#171d5b"/>
    <path id="Path_451" data-name="Path 451" d="M168.66,49.35h11.5v8.189h-11.5Z" transform="translate(-70.315 -20.484)" fill="#171d5b"/>
    <path id="Path_452" data-name="Path 452" d="M186.38,49.35h11.5v8.189h-11.5Z" transform="translate(-77.703 -20.484)" fill="#171d5b"/>
    <path id="Path_453" data-name="Path 453" d="M204.09,28.866h12.723V7.019h8.163V28.866h5.953c3.5,0,7.7-1.585,7.7-7.317V7.019H246.8V21.548c.117,5.323,2.98,7.9,7.353,7.9,4.612,0,7-2.872,7-7.376V0h8.14V21.016c0,11.242-4.962,16.629-15.12,16.629-4.432,0-8.927-1.287-11.609-5.621a16.233,16.233,0,0,1-11.615,5.036H204.119Z" transform="translate(-85.086)" fill="#171d5b"/>
    <path id="Path_454" data-name="Path 454" d="M122.661,31.771l.029-14.161h-8.163V31.771h-3.44c-5.248,0-9.458-2.872-9.458-8.318,0-4.972,4.612-8.253,9.458-8.253h1.8V7C101.53,7.211,93.46,13.364,93.46,23.43c0,11.769,8.869,16.512,20.018,16.512h.933c-.128,1.024-.373,10.084-.735,10.716a3.689,3.689,0,0,1-1.708,1.55,12.138,12.138,0,0,1-4.91.673,27.444,27.444,0,0,1-8.5-1.427l.583,8.253a27.118,27.118,0,0,0,8.519,1.41c8.332-.012,12.443-3.293,14.105-8.493a17.076,17.076,0,0,0,.478-1.9c.157-.807.262-9.9.332-10.78h5.539V31.754Z" transform="translate(-38.964 -2.906)" fill="#171d5b"/>
    <rect id="Rectangle_259" data-name="Rectangle 259" width="8.303" height="8.329" transform="translate(80.228 0.076)" fill="#eea820"/>
  </g>
</svg>
