<svg xmlns="http://www.w3.org/2000/svg" width="20.766" height="16.307" viewBox="0 0 20.766 16.307">
  <g id="money" transform="translate(-2.25 -5.632)">
    <path id="Path_581" data-name="Path 581" d="M22.367,25.024H2.9a.649.649,0,0,0,0,1.3H22.367a.649.649,0,0,0,0-1.3Z" transform="translate(0 -6.608)" fill="#fff"/>
    <path id="Path_582" data-name="Path 582" d="M22.367,28.4H2.9a.649.649,0,0,0,0,1.3H22.367a.649.649,0,0,0,0-1.3Z" transform="translate(0 -7.758)" fill="#fff"/>
    <path id="Path_583" data-name="Path 583" d="M21.389,5.632H3.877A1.632,1.632,0,0,0,2.25,7.259V15.5a1.632,1.632,0,0,0,1.627,1.627H21.389A1.632,1.632,0,0,0,23.016,15.5V7.259A1.632,1.632,0,0,0,21.389,5.632ZM6.051,15.644H4.382a.649.649,0,1,1,0-1.3H6.051a.649.649,0,1,1,0,1.3Zm0-7.231H4.382a.649.649,0,1,1,0-1.3H6.051a.649.649,0,0,1,0,1.3Zm6.582,6.675a3.708,3.708,0,1,1,3.708-3.708A3.713,3.713,0,0,1,12.633,15.088Zm8.251.556H19.215a.649.649,0,1,1,0-1.3h1.669a.649.649,0,1,1,0,1.3Zm0-7.231H19.215a.649.649,0,0,1,0-1.3h1.669a.649.649,0,0,1,0,1.3Z" fill="#fff"/>
    <path id="Path_584" data-name="Path 584" d="M19.187,13.214a2.457,2.457,0,1,1-2.457-2.457A2.457,2.457,0,0,1,19.187,13.214Z" transform="translate(-4.097 -1.747)" fill="#fff"/>
  </g>
</svg>
