<svg xmlns="http://www.w3.org/2000/svg" width="26.968" height="20.551" viewBox="0 0 26.968 20.551">
  <path id="out-alt" d="M26.595,15.683l-8.99,8.99a1.286,1.286,0,0,1-2.194-.91V18.626H8.134a1.281,1.281,0,0,1-1.284-1.284V12.205a1.281,1.281,0,0,1,1.284-1.284h7.277V5.784a1.287,1.287,0,0,1,2.194-.91l8.99,8.99A1.3,1.3,0,0,1,26.595,15.683ZM10.274,24.405v-2.14a.644.644,0,0,0-.642-.642H5.137a1.71,1.71,0,0,1-1.712-1.712V9.637A1.71,1.71,0,0,1,5.137,7.924H9.632a.644.644,0,0,0,.642-.642V5.142A.644.644,0,0,0,9.632,4.5H5.137A5.138,5.138,0,0,0,0,9.637V19.911a5.138,5.138,0,0,0,5.137,5.137H9.632A.644.644,0,0,0,10.274,24.405Z" transform="translate(0 -4.499)" fill="#fff"/>
</svg>
