<svg id="Page-1" xmlns="http://www.w3.org/2000/svg" width="130.186" height="137.062" viewBox="0 0 130.186 137.062">
  <g id="Home-Page" transform="translate(0 0)">
    <g id="Judg---Logo" transform="translate(0 0)">
      <g id="_x37_uoDrF.tif" transform="translate(0 0)">
        <g id="Group_295" data-name="Group 295">
          <g id="Group">
            <path id="Path" d="M65.609,0l.537,1.082a13.334,13.334,0,0,0,3.223,3.787,9.939,9.939,0,0,0,5.013,1.8c1.253.18,2.507.18,3.939.361a34.19,34.19,0,0,1,14.324,4.509,24.1,24.1,0,0,1,9.131,9.378,1.79,1.79,0,0,0,.9.721,58.384,58.384,0,0,1,9.131,2.705,29.97,29.97,0,0,1,9.489,5.591,27.516,27.516,0,0,1,8.057,11.542,43.79,43.79,0,0,1,1.432,4.509c0,.18.179.541.179.721V136.7c0,.361-.179.361-.358.361H1.332c-.716,0-.537,0-.537-.541V47.792a15.6,15.6,0,0,1,1.611-7.034,25.48,25.48,0,0,1,6.088-8.3,39.1,39.1,0,0,1,15.04-9.017A43.666,43.666,0,0,1,28.726,22a.984.984,0,0,0,.9-.541A25.182,25.182,0,0,1,42.691,10.1a33.423,33.423,0,0,1,8.057-2.164c1.969-.361,4.118-.541,6.087-.721A10.288,10.288,0,0,0,59.88,6.132a12.9,12.9,0,0,0,4.834-4.509A7.333,7.333,0,0,0,65.609,0Z" transform="translate(-0.775)" fill="#037c5a" fill-rule="evenodd"/>
            <path id="Path-2" data-name="Path" d="M127.011,100.092v17.313c0,.18,0,.18-.179.18H115.194c-.179,0-.358,0-.358-.361v-5.771c0-.361,0-.361-.358-.361H97.469c-.358,0-.537,0-.537-.541v-5.591c0-.18,0-.18-.179-.18H31.938a.386.386,0,0,0-.358.361v5.771c0,.361,0,.361-.358.361-4.3,0-8.415,0-12.712-.18h-4.3c-.537,0-.537,0-.537.541v5.951c0,.18,0,.18-.179.18H2.4c-.358,0-.358,0-.358-.361V47.612a18.831,18.831,0,0,1,2.507-9.378A26.824,26.824,0,0,1,11.527,30.3a40.269,40.269,0,0,1,17.009-8.115,2.073,2.073,0,0,0,1.253-.9,23.5,23.5,0,0,1,12.533-10.64,34.765,34.765,0,0,1,8.236-2.164c1.79-.361,3.581-.541,5.371-.721A7.876,7.876,0,0,0,58.8,6.674,13.447,13.447,0,0,0,63.45,2.345c.179-.18.179-.361.358-.541s.179-.361.358-.541c.179.18.179.361.358.541A9.287,9.287,0,0,0,66.852,4.87a9.425,9.425,0,0,0,5.192,2.525c.9.18,1.969.18,2.865.361a34.223,34.223,0,0,1,14.5,3.968,23.579,23.579,0,0,1,9.668,9.558c.179.361.358.541.716.541a49.351,49.351,0,0,1,11.1,3.427,30.881,30.881,0,0,1,10.027,7.394,30.053,30.053,0,0,1,5.55,9.919c0,.18.179.361.179.541a10.653,10.653,0,0,1,.716,4.148V98.108h-.179a10.23,10.23,0,0,1-.716-2.164c-1.611-6.312-3.223-12.444-4.834-18.756-1.432-5.771-3.044-11.542-4.476-17.313-.537-1.984-1.074-3.787-1.432-5.771-.179-.721-.179-.721-.9-.721-1.79,0-1.432,0-1.79-1.443-.179-.721-.179-.721-.9-.9H110.9a.658.658,0,0,1-.716-.721v-.18c-.179-1.082-.179-1.082-1.253-1.082h-.537c-.537,0-.716-.18-.9-.721,0-.18,0-.18-.179-.361,0-.541-.358-.721-.9-.721a36.251,36.251,0,0,1-11.638-3.427c-1.611-.9-3.223-1.8-4.834-2.885a7.577,7.577,0,0,0-1.253-.9,15.618,15.618,0,0,0-1.97-1.623,14.018,14.018,0,0,0-5.371-1.443,19.206,19.206,0,0,0-5.551.361A23.289,23.289,0,0,0,67.568,41.3a12.564,12.564,0,0,0-1.79,1.443c-.358.36-.537.36-.9,0a28.338,28.338,0,0,0-8.057-4.869,18.605,18.605,0,0,0-6.446-1.082,15.409,15.409,0,0,0-5.729,1.082,6.758,6.758,0,0,0-2.865,2.164l-.179.18a34.142,34.142,0,0,1-8.057,4.148,41.41,41.41,0,0,1-9.131,1.984c-.537,0-.716.18-.716.721-.179,1.262,0,1.443-1.611,1.623-.716,0-1.074.361-1.253,1.082s-.358.721-.9.9c-.358,0-.716.18-1.074.18a.476.476,0,0,0-.537.541c-.179.361-.179.9-.358,1.263s-.358.541-.716.541h-.9c-.537,0-.716.18-.9.721-1.432,5.41-3.044,11-4.476,16.411C9.737,75.2,8.3,79.894,7.051,84.763,5.8,89.091,4.724,93.419,3.47,97.748a3.09,3.09,0,0,0-.179,1.262,2.114,2.114,0,0,0,1.79,1.984h.537c5.192,0,10.385.18,15.756,0,5.909-.18,11.817,0,17.9-.18,5.909-.18,11.638,0,17.546-.18,1.074,0,2.328-.18,3.4-.18a1.621,1.621,0,0,1,1.253.541,5.024,5.024,0,0,0,2.507,1.8A4.7,4.7,0,0,0,69,101.354a1.624,1.624,0,0,1,1.432-.721c3.223,0,6.446.18,9.668.18h6.088c2.148.18,4.118,0,6.266.18,1.97.18,4.118,0,6.088.18,2.148.18,4.3,0,6.446.18,1.97.18,3.939,0,5.909.18,2.148.18,4.3,0,6.446.18,1.97.18,3.939,0,5.909,0,.537,0,1.074.18,1.79.18a2.053,2.053,0,0,0,1.969-1.082c-.358-.361-.358-.541,0-.721Z" transform="translate(0.847 1.622)" fill="#fff" fill-rule="evenodd"/>
            <path id="Path-3" data-name="Path" d="M126.543,78.6a2.057,2.057,0,0,1-1.253,1.443,1.071,1.071,0,0,1-.716.18c-3.581,0-7.162-.18-10.743-.18-3.044,0-6.088-.18-9.131-.18-4.118,0-8.236-.18-12.354-.18s-8.236-.18-12.354-.18c-3.76,0-7.341-.18-11.1-.18-.358,0-.537,0-.716.361a4.782,4.782,0,0,1-4.118,2.164,4.6,4.6,0,0,1-3.76-2.164,1.273,1.273,0,0,0-1.074-.541c-5.909,0-12,0-17.9.18-5.013,0-10.206,0-15.219.18-6.625,0-13.428,0-20.053.18H4.613a2.21,2.21,0,0,1-2.328-2.705A8.977,8.977,0,0,1,3,74.628C6.762,61.1,10.522,47.4,14.282,33.87l.537-1.623c0-.361.179-.361.537-.361a3.918,3.918,0,0,0,1.432-.18c.358,0,.358-.18.537-.361a5.3,5.3,0,0,0,.358-1.623.386.386,0,0,1,.358-.361c.537,0,1.074-.18,1.79-.18a.386.386,0,0,0,.358-.361c0-.361.179-.721.179-1.082s.179-.361.537-.361c.537,0,1.074-.18,1.611-.18.179,0,.358,0,.358-.361s.179-.9.179-1.262c0-.541,0-.541.537-.541A42.772,42.772,0,0,0,36.3,21.607a35.947,35.947,0,0,0,4.476-2.525.176.176,0,0,0,.179-.18c.179.18.537,0,.716.18,1.253,2.705,2.328,5.41,3.581,8.3l8.057,18.936c1.611,3.968,3.4,7.935,5.013,11.722,0,.18.179.361,0,.541a.334.334,0,0,1-.537,0,16.773,16.773,0,0,1-.9-1.8c-3.76-8.837-7.52-17.854-11.28-26.691-1.432-3.246-2.865-6.492-4.118-9.919,0-.18-.179-.18-.179-.361-.716,1.623-1.433,3.246-2.328,4.869-1.074,2.344-2.148,4.689-3.223,6.853C34.514,34.411,33.26,37.3,31.828,40l-3.76,8.115c-1.433,3.246-2.865,6.312-4.3,9.558,0,.18-.179.361-.358.541h-.537c-.179-.18,0-.361.179-.541,2.507-5.591,5.192-11.362,7.7-16.952,2.328-5.23,4.834-10.46,7.162-15.69.716-1.443,1.253-3.066,1.969-4.508,0-.18.179-.361.179-.541-.716.361-1.253.721-1.97,1.082a33.964,33.964,0,0,1-8.952,3.427,44.438,44.438,0,0,1-5.192.9.477.477,0,0,0-.537.541c-.537,3.246-1.611,6.312-2.328,9.558-1.611,6.132-3.4,12.263-5.013,18.576-1.432,5.23-2.865,10.64-4.3,15.87-.537,1.8-1.074,3.607-1.432,5.411-.179.541,0,.541.358.721a45.1,45.1,0,0,0,5.192.721,17.113,17.113,0,0,0,3.044,0A48.613,48.613,0,0,0,27.71,75.71c.358,0,.9-.361,1.253-.361a62.456,62.456,0,0,1,12.891-3.787,30.465,30.465,0,0,1,19.874,3.246,13.324,13.324,0,0,1,2.148,1.263c.358.18.358.18.358-.18V25.755c.179-.541.358-.541.716-.18.179.361,0,.721,0,1.082V75.53c0,.18-.179.541.179.721a.928.928,0,0,0,.716-.361,36.121,36.121,0,0,1,12.175-4.148,37.563,37.563,0,0,1,4.655-.361,33.788,33.788,0,0,1,10.385,1.623c2.328.721,4.655,1.623,6.983,2.525a34.536,34.536,0,0,0,9.489,2.164,28.488,28.488,0,0,0,9.49-1.082c.358-.18.537-.361.358-.721L112.4,49.38c-1.79-6.673-3.581-13.526-5.371-20.2l-.537-2.164c-.179-1.082-.358-1.082-1.253-1.263a43.153,43.153,0,0,1-9.131-2.525,24.3,24.3,0,0,1-6.625-3.787l-.179-.18h0l.179.18c2.328,5.23,4.476,10.46,6.8,15.87,2.507,5.951,5.013,11.9,7.52,17.674.537,1.443,1.253,2.885,1.79,4.328.179.18.358.541.179.721h-.358c-.179-.18-.179-.361-.358-.541-1.611-3.787-3.4-7.755-5.013-11.542-2.507-5.951-5.013-11.9-7.7-17.854-1.074-2.705-2.328-5.411-3.4-7.935,0-.18-.179-.361-.179-.541-.358.9-.9,1.8-1.253,2.525-1.074,2.344-2.149,4.689-3.223,7.214l-3.76,8.115-3.223,7.034c-1.074,2.344-2.148,4.689-3.223,6.853L71.4,57.315c0,.18-.179.361-.179.541a.655.655,0,0,1-.537.18c-.179-.18,0-.361,0-.721l2.686-5.951c1.432-3.246,2.865-6.492,4.3-9.558l3.76-8.116c1.253-2.705,2.507-5.591,3.76-8.3.9-1.8,1.611-3.607,2.507-5.591l.537-1.082c0-.18-.179-.541,0-.721a.928.928,0,0,1,.716.361,32.334,32.334,0,0,0,13.07,6.132,32.857,32.857,0,0,0,4.118.721c.358,0,.537.18.716.541,0,.361.179.541.179.9s.179.361.537.361a4.926,4.926,0,0,1,1.611.18c.358,0,.358,0,.537.541a7.862,7.862,0,0,0,.179.9.387.387,0,0,0,.358.361h1.79c.358,0,.358.18.537.361.179.541.179,1.082.358,1.443a.387.387,0,0,0,.358.361h1.432c.537,0,.537,0,.537.361l2.686,10.28c2.865,10.821,5.55,21.641,8.415,32.462.179.541.358,1.262.537,1.8v.36a2.519,2.519,0,0,1,0,1.623C126.722,78.416,126.722,78.6,126.543,78.6Z" transform="translate(1.136 23.119)" fill="#1d1d1b" fill-rule="evenodd"/>
            <path id="Path-4" data-name="Path" d="M31.675,56.521c.358.18.358.361.537.541A14.517,14.517,0,0,1,34.719,64.1c.179,1.082.179,2.164.358,3.246a2.031,2.031,0,0,0,2.148,1.984,2.255,2.255,0,0,0,1.074-.18,12.844,12.844,0,0,0,4.3-1.8c-.716-1.082-1.611-1.263-3.044-.9a2.225,2.225,0,0,1,.9-1.8,3.437,3.437,0,0,1,1.79-.541,12.794,12.794,0,0,1,5.192.541c.716.18.716.541.537,1.082a1.4,1.4,0,0,1-.716.721,16.54,16.54,0,0,0-1.79.9c-.358.18-.358.18-.179.541a.983.983,0,0,0,.9.541,4.438,4.438,0,0,0,3.044-.18,1.579,1.579,0,0,0,.9-1.623c-.537-3.607-.9-7.394-1.433-11a48.867,48.867,0,0,0-.716-5.05,2.381,2.381,0,0,1,.537-1.8,33.674,33.674,0,0,0,1.79,3.607H49.58c-.179,0-.358,0-.358.361.179.721.179,1.623.358,2.345l.537,4.869c.179,1.443.358,2.705.537,4.148a9.029,9.029,0,0,1-.179,3.787,3.279,3.279,0,0,1-2.507,2.525,4.663,4.663,0,0,1-2.686-.361,4.839,4.839,0,0,1-1.433-1.262.654.654,0,0,0-.537-.18,11.836,11.836,0,0,1-3.4,1.623,7.14,7.14,0,0,1-2.686.541,4.192,4.192,0,0,1-1.432-.361c-.537-.18-.716-.541-.9-1.082A5.3,5.3,0,0,1,34.54,67.7a2.3,2.3,0,0,0-.179-1.082h-.179a13.188,13.188,0,0,1-5.371,5.05c-.179.18-.537.18-.716.361a3.469,3.469,0,0,1-2.328.18,1.713,1.713,0,0,1-1.432-1.443,2.519,2.519,0,0,1,0-1.623v-.721c-.179.18-.537.361-.716.541a16.819,16.819,0,0,1-3.939,2.164,10.141,10.141,0,0,1-3.939.721,4.274,4.274,0,0,1-4.3-4.509,6.7,6.7,0,0,1,1.074-3.787c.179-.18.358-.541.537-.721,0,.361-.179.541-.179.721a8.544,8.544,0,0,0-.716,3.066,3.1,3.1,0,0,0,2.328,3.246,8.178,8.178,0,0,0,4.655,0,25.27,25.27,0,0,0,3.223-1.443,29.759,29.759,0,0,0,3.76-2.886.939.939,0,0,0,.358-.721,38.275,38.275,0,0,0-.358-4.509c-.179-1.443-.179-2.705-.358-4.148-.179-1.623-.358-3.246-.537-4.689-.179-.9-.179-1.984-.358-2.886v-.541c.179-.18.358-.361.537-.361s.179.18.358.361c.358,1.082.716,1.984,1.074,3.066v.18c-.179,0-.358-.361-.716-.361v.361c.179,2.885.537,5.771.716,8.476,0,1.082.179,2.164.179,3.246a10.625,10.625,0,0,1-.358,2.345A4.292,4.292,0,0,1,25.051,67.7c-.179.18-.358.361-.358.541a3.089,3.089,0,0,0,.179,1.262,1.194,1.194,0,0,0,1.253.9,4.512,4.512,0,0,0,2.148-.361,18.02,18.02,0,0,0,4.476-3.066A9.907,9.907,0,0,0,34,65.358a1.091,1.091,0,0,0,.179-.721,28.605,28.605,0,0,0-1.97-6.673c-.179-.18-.179-.361-.179-.721C31.675,57.784,31.675,57.242,31.675,56.521Z" transform="translate(12.927 61.244)" fill="#fff" fill-rule="evenodd"/>
            <path id="Path-5" data-name="Path" d="M35.819,67.265l5.909-2.705c2.507-1.262,5.013-2.705,7.52-4.148l1.611-1.082a1.9,1.9,0,0,0,.9-1.623,1.635,1.635,0,0,0-.179-.9,21.284,21.284,0,0,1-1.969-3.427,2.048,2.048,0,0,1-.179-1.443.666.666,0,0,1,.179-.541c.537.361.9.9,1.432,1.263.179.18,0,.361,0,.541a.34.34,0,0,0,0,.541,9.985,9.985,0,0,0,1.074,1.443,3.657,3.657,0,0,1,.537,1.984c0,.541-.179,1.082-.179,1.623a2.607,2.607,0,0,1-1.253,1.8c-.358.18-.716.541-1.074.721l-.358.361a4.431,4.431,0,0,0,0,2.164,2.11,2.11,0,0,0,1.97,1.8,4.882,4.882,0,0,0,2.328-.361,19.277,19.277,0,0,0,5.729-4.328c.179-.18.179-.36.358-.541a.551.551,0,0,0,0-.721.655.655,0,0,0-.537-.18,8.661,8.661,0,0,1-2.148.18c-1.074-.18-1.79-.9-1.253-2.164,0-.18.179-.36.179-.541a1.874,1.874,0,0,1,3.223-.541,4.821,4.821,0,0,1,1.253,2.525.666.666,0,0,0,.179.541,2.507,2.507,0,0,1-.537,2.164,15.73,15.73,0,0,1-5.192,4.509,6.664,6.664,0,0,1-3.223.9c-1.791,0-2.686-.9-2.865-2.705V61.855c-.179,0-.358.18-.537.18A49.219,49.219,0,0,1,43.518,65.1a7.871,7.871,0,0,1-2.865,1.082,18.176,18.176,0,0,1-4.834,1.082Z" transform="translate(44.234 66.01)" fill="#fff" fill-rule="evenodd"/>
            <path id="Path-6" data-name="Path" d="M32.52,58.407c0,.541-.179,1.082-.179,1.623a8.84,8.84,0,0,0,.179,2.164A2.525,2.525,0,0,0,34.847,64a5.223,5.223,0,0,0,2.865-.721,19.162,19.162,0,0,0,3.939-2.705c.358-.361.716-.541.9-.9l.537-.541a1.633,1.633,0,0,0,.179-1.8c-.358-.721-.716-1.623-1.074-2.344a4.275,4.275,0,0,1-.358-1.443v-.721c.358.18.537.541.9.721s.537.541.9.721v.18c-.179.18-.358.18-.358.361s.179.361.358.541a5.577,5.577,0,0,1,0,5.05.176.176,0,0,1-.179.18,28.538,28.538,0,0,1-4.3,3.607A8.2,8.2,0,0,1,36.28,65.44a2.466,2.466,0,0,1-1.611,0A3.187,3.187,0,0,1,32.7,64a4.908,4.908,0,0,1-.537-2.705,3.336,3.336,0,0,1,.358-2.885Z" transform="translate(39.297 67.835)" fill="#fff" fill-rule="evenodd"/>
            <path id="Path-7" data-name="Path" d="M31.1,68.357c0-1.443-.179-2.705-.179-4.148-.179-1.984-.358-4.148-.537-6.132-.179-2.164-.358-4.148-.716-6.312a6.525,6.525,0,0,0-.358-1.984,3.088,3.088,0,0,1,.179-1.262.386.386,0,0,1,.358-.361c.179,0,.179.18.358.361a10.193,10.193,0,0,1,1.253,3.246v.361c-.358-.18-.537-.361-.9-.361a3.093,3.093,0,0,0,.179,1.263c.179,2.164.537,4.509.716,6.673a35.308,35.308,0,0,1,.358,4.328A7.417,7.417,0,0,1,31.283,68,.56.56,0,0,1,31.1,68.357Z" transform="translate(35.879 61.853)" fill="#fff" fill-rule="evenodd"/>
            <path id="Path-8" data-name="Path" d="M40.934,51.345c-.358-.18-.537-.361-.9-.541v.361c.179,2.164.537,4.328.716,6.492.179,1.8.358,3.427.537,5.23a6.777,6.777,0,0,1-.537,3.787c0,.18-.179.18-.179.361H40.4c0-.721-.179-1.262-.179-1.984-.179-2.164-.358-4.328-.537-6.312-.358-2.885-.537-5.951-1.074-8.837a4.937,4.937,0,0,1,0-1.623c0-.18,0-.361.179-.361.179-.18.537-.18.537,0A8.69,8.69,0,0,1,40.934,51.345Z" transform="translate(47.713 61.371)" fill="#fff" fill-rule="evenodd"/>
            <path id="Path-9" data-name="Path" d="M37.305,52.012c0,.361-.179.541-.179.9a6.431,6.431,0,0,1-.716,1.623,5.479,5.479,0,0,0-.9,1.262.176.176,0,0,0,.179.18A2.735,2.735,0,0,1,36.947,58.5a2.3,2.3,0,0,1-.179,1.082,2.481,2.481,0,0,1-.9,1.443,3.591,3.591,0,0,1-1.433.721c-.716.18-1.253,0-1.432-.721v-.361A6.35,6.35,0,0,1,34.082,56.7a.34.34,0,0,0,0-.541,15.715,15.715,0,0,1-1.432-1.8c-.179-.361-.358-.541-.358-.9v-.9c.716.361,1.253.721,1.97,1.082-.358.541-.358.541.179,1.082a1.374,1.374,0,0,0,.537.361c.716-1.082,1.611-2.164,2.328-3.246Z" transform="translate(39.704 66.475)" fill="#fff" fill-rule="evenodd"/>
            <path id="Path-10" data-name="Path" d="M22.495,57.007a1.356,1.356,0,0,1,.9-1.262c1.253-.721,2.328-1.443,3.581-2.164,1.79-1.082,3.4-1.984,5.192-3.066a.176.176,0,0,0,.179-.18c.179,0,.358-.18.358,0a.34.34,0,0,1,0,.541c-.179.18-.358.18-.358.361-2.865,1.623-5.909,3.246-8.773,5.05a.624.624,0,0,0-.358.18.665.665,0,0,0-.179.541c0,.18.179.18.358.18s.358.18.537.361c0,.18.179.18,0,.361,0,.18-.179.18-.358.18C22.674,58.27,22.495,57.729,22.495,57.007Z" transform="translate(27.121 64.545)" fill="#fff" fill-rule="evenodd"/>
            <path id="Path-11" data-name="Path" d="M20.277,52.182a20.294,20.294,0,0,0,2.328-1.8,5.708,5.708,0,0,0-2.506.18c-.179,0-.358.18-.537,0s0-.361,0-.541a1.536,1.536,0,0,1,.537-.9,3.11,3.11,0,0,1,3.044-.541c.358.18.358.18.358.541A2.838,2.838,0,0,1,20.635,52C20.277,52.182,20.277,52.362,20.277,52.182Z" transform="translate(23.251 62.157)" fill="#fff" fill-rule="evenodd"/>
            <path id="Path-12" data-name="Path" d="M30.8,54.154a33.708,33.708,0,0,0,4.118-2.886c.358-.361.716-.541.9-.9,0-.18-.179-.18-.358-.361-.358-.361-.537-.541-.358-.9v-.361a.339.339,0,0,1,0-.541c0-.361.179-.361.537-.361a2.586,2.586,0,0,1,1.97,1.623c.179.361.179.721-.179.9-.179.361-.537.361-.9.18s-.358,0-.537.18A12.5,12.5,0,0,1,30.8,54.154Z" transform="translate(37.791 61.447)" fill="#fff" fill-rule="evenodd"/>
            <path id="Path-13" data-name="Path" d="M25.337,51.167a7.447,7.447,0,0,1,.179-1.984,1.09,1.09,0,0,1,.179-.721c.179-.361.358-.541.716-.541s.537.18.716.541c0,.18,0,.18-.179.361h-.537c-.179,0-.358,0-.358.361a2.3,2.3,0,0,0-.179,1.082,7.367,7.367,0,0,1,0,1.984c0,.18,0,.361-.179.361a.387.387,0,0,1-.358-.361,1.371,1.371,0,0,1-.358-.721c-.179-.18-.179-.541-.358-.721s-.358-.361-.537-.361c-.358,0-.537-.18-.9-.361a1.232,1.232,0,0,1-.537-.9.783.783,0,0,1,.9-.18.477.477,0,0,1,.537.541c.358.541.537.9.9,1.443C25.158,50.987,25.158,51.167,25.337,51.167Z" transform="translate(27.322 61.548)" fill="#fff" fill-rule="evenodd"/>
            <path id="Path-14" data-name="Path" d="M38.253,52.079a.476.476,0,0,1-.537-.541l-.537-1.082C37,50.1,37,50.1,36.641,50.1a1.605,1.605,0,0,1-.9-.18c-.358-.18-.537-.361-.358-.721a.8.8,0,0,1,.716-.541.929.929,0,0,1,.716.361,5.486,5.486,0,0,1,.9,1.263c0,.18.179.18.358.361,0-.721.179-1.263.179-1.984,0-.36,0-.541.179-.721.179-.361.716-.361,1.074-.18a.34.34,0,0,1,0,.541c-.179,0-.179,0-.358.18-.358,0-.358,0-.537.541C38.432,49.915,38.432,51,38.253,52.079Z" transform="translate(43.591 61.178)" fill="#fff" fill-rule="evenodd"/>
            <path id="Path-15" data-name="Path" d="M44.172,54.156c-.179,0-.358,0-.358-.18s0-.18.179-.18.179-.18.358-.18c1.79-1.082,3.581-1.984,5.192-3.066.179,0,.179-.18.358-.18s.358,0,.358.18v.361a.623.623,0,0,1-.358.18c-1.79.9-3.4,1.8-5.192,2.886A.655.655,0,0,1,44.172,54.156Z" transform="translate(54.502 64.692)" fill="#fff" fill-rule="evenodd"/>
            <path id="Path-16" data-name="Path" d="M41.5,51.2c0,.18-.179.18-.358.361a12.038,12.038,0,0,0-1.969,1.262c-1.074.721-2.149,1.263-3.4,1.984a.655.655,0,0,1-.537.18c-.179,0-.179,0-.358-.18,0-.18,0-.18.179-.18l.179-.18c1.791-1.082,3.581-2.164,5.371-3.427.179,0,.179-.18.358-.18C41.324,50.842,41.5,51.023,41.5,51.2Z" transform="translate(43.026 65.3)" fill="#fff" fill-rule="evenodd"/>
            <path id="Path-17" data-name="Path" d="M40.566,50.153c-.179,0-.358,0-.358-.18s0-.18.179-.18a.176.176,0,0,0,.179-.18c1.79-.721,3.4-1.262,5.192-1.984.179,0,.179,0,.358-.18.179,0,.358,0,.358.18s0,.361-.179.361-.179,0-.358.18c-1.79.541-3.4,1.262-5.192,1.8A.176.176,0,0,1,40.566,50.153Z" transform="translate(49.871 60.94)" fill="#fff" fill-rule="evenodd"/>
            <path id="Path-18" data-name="Path" d="M43.574,50.5c-.358.361-.537.721-.9,1.082-.179.18-.179.18-.358,0-.358-.361-.9-.721-1.253-1.082-.179-.18-.179-.18,0-.361l.716-.721c.179-.18.179-.18.358,0A9.933,9.933,0,0,0,43.574,50.5Z" transform="translate(50.803 63.297)" fill="#fff" fill-rule="evenodd"/>
            <path id="Path-19" data-name="Path" d="M32.7,50.132c.537.361,1.074.541,1.611.9.179,0,.179.18,0,.361h0l-.537,1.082c-.358,0-.716-.361-1.074-.541-.716-.361-.716-.18-.358-1.082C32.346,50.673,32.525,50.492,32.7,50.132Z" transform="translate(39.471 64.387)" fill="#fff" fill-rule="evenodd"/>
            <path id="Path-20" data-name="Path" d="M33.691,49.895a9.981,9.981,0,0,1,1.432.9c.179.18.179.18.179.361-.179.361-.358.541-.358.9,0,.18-.179.18-.358.18-.358-.18-.9-.541-1.253-.721-.179,0-.179-.18-.179-.361A6.585,6.585,0,0,0,33.691,49.895Z" transform="translate(40.812 64.083)" fill="#fff" fill-rule="evenodd"/>
            <path id="Path-21" data-name="Path" d="M15.054,51.868v1.8c0,1.082.358,1.082,1.253.721h.179a2.62,2.62,0,0,1-.358,1.262.669.669,0,0,1-1.074,0,1.954,1.954,0,0,1-.358-1.443,3.629,3.629,0,0,1,.358-2.344Z" transform="translate(17.015 66.618)" fill="#fff" fill-rule="evenodd"/>
            <path id="Path-22" data-name="Path" d="M27.353,59.514a2.262,2.262,0,0,1-1.611.721c-.537,0-.9-.361-.537-.9,0-.18.179-.361.179-.541-.179-.18-.537-.18-.537-.361v-.361c0-.361.179-.361.716-.361a1.091,1.091,0,0,0,.179.721.34.34,0,0,1,0,.541.386.386,0,0,1-.358.361c-.179.36-.179.541.179.541a1.6,1.6,0,0,0,.9-.18c.537-.36.716-.36.9-.18Z" transform="translate(30.141 74.122)" fill="#fff" fill-rule="evenodd"/>
            <path id="Path-23" data-name="Path" d="M15.3,55.677a5.026,5.026,0,0,1,.179,1.623.386.386,0,0,1-.358-.361c-.179-.18-.179-.36-.358-.541a1.137,1.137,0,0,0-1.074-.9c-.179,0-.537-.18-.537-.361-.179-.361-.179-.541.179-.541.358-.18.537,0,.9.18a5.485,5.485,0,0,1,.9,1.262c.179.18.179-.18.179-.18C15.125,55.857,14.946,55.677,15.3,55.677Z" transform="translate(14.975 70.024)" fill="#fff" fill-rule="evenodd"/>
            <path id="Path-24" data-name="Path" d="M26.324,48.259v.721c0,.721.179.9.716.721h.179a.993.993,0,0,1-.537.9c-.358.18-.716-.18-.9-.541v-.721a4.621,4.621,0,0,1,.358-1.263C26.5,48.079,26.324,48.259,26.324,48.259Z" transform="translate(31.349 61.751)" fill="#fff" fill-rule="evenodd"/>
            <path id="Path-25" data-name="Path" d="M22.7,50.681c0,.18-.179.541-.179.721-.179.541,0,.721.537.721h.179v.18c-.179.541-.537.721-.9.541a.66.66,0,0,1-.358-.9,1.209,1.209,0,0,1,.716-1.262C22.523,50.5,22.7,50.5,22.7,50.681Z" transform="translate(26.377 64.92)" fill="#fff" fill-rule="evenodd"/>
            <path id="Path-26" data-name="Path" d="M25.1,52.734v1.082c0,.721.179.721.9.541h.179v.361c-.179.361-.358.541-.716.541a.81.81,0,0,1-.537-.541V53.636a1.359,1.359,0,0,1,.179-.9Z" transform="translate(30.241 67.556)" fill="#fff" fill-rule="evenodd"/>
            <path id="Path-27" data-name="Path" d="M29.324,57.519c0,.361-.179.541-.179.9-.179.541,0,.541.537.541h.179c-.179.541-.537.721-.9.541s-.358-.541-.358-.9a5.417,5.417,0,0,1,.716-1.443Z" transform="translate(34.973 73.412)" fill="#fff" fill-rule="evenodd"/>
            <path id="Path-28" data-name="Path" d="M19.828,54.617c0,.18-.179.361-.179.541-.179.541-.179.541.358.721h.179v.18c-.358.361-.716.541-.9.361-.358-.18-.358-.541-.179-1.082a1.8,1.8,0,0,1,.716-.9Z" transform="translate(22.625 69.821)" fill="#fff" fill-rule="evenodd"/>
            <path id="Path-29" data-name="Path" d="M21.239,58.252c0,.18-.179.18-.179.361-.179.361,0,.541.358.721H21.6c-.179.36-.716.541-.9.36-.358-.18-.358-.541-.179-1.082a2.482,2.482,0,0,1,.537-.721.176.176,0,0,0,.179-.18h0c.179,0,.179,0,.179.18s0,.18-.179.361Z" transform="translate(24.437 74.122)" fill="#fff" fill-rule="evenodd"/>
            <path id="Path-30" data-name="Path" d="M43.858,55.523v.541c0,.361,0,.541.537.541h.358a.176.176,0,0,1-.179.18c-.179.361-.537.541-.716.361a1.372,1.372,0,0,1-.358-.721,2.576,2.576,0,0,1,.358-1.082Z" transform="translate(54.099 71.08)" fill="#fff" fill-rule="evenodd"/>
            <path id="Path-31" data-name="Path" d="M16.269,58.1v.18c-.179.541-.179.541.358.721,0,.18-.179.18-.179.36-.358.18-.537,0-.537-.36a.666.666,0,0,1,.179-.541c-.179-.18-.179-.361.179-.361Z" transform="translate(18.665 74.451)" fill="#fff" fill-rule="evenodd"/>
            <path id="Path-32" data-name="Path" d="M14.13,54.981h0c-.179.361,0,.541,0,.721s0,.18-.179.18V54.62c.179,0,0-.18.179-.361h0l.179-.18h.537l.179.18h0a.176.176,0,0,0,.179.18h0v.18h0C14.668,54.981,14.309,54.8,14.13,54.981Z" transform="translate(16.148 69.457)" fill="#fff" fill-rule="evenodd"/>
            <path id="Path-33" data-name="Path" d="M19.4,51.708c-.179.361,0,.361.358.541-.179.18-.358.361-.537.18a.666.666,0,0,1-.179-.541c0-.18.179-.18.358-.18Z" transform="translate(22.691 66.238)" fill="#fff" fill-rule="evenodd"/>
            <path id="Path-34" data-name="Path" d="M14,55.556c.179-.18,0-.361.179-.541a.665.665,0,0,1,.179-.541v1.262c-.179.18,0,.361-.179.541,0,.18-.179.18-.179,0C14,55.916,13.817,55.736,14,55.556Z" transform="translate(16.103 69.964)" fill="#fff" fill-rule="evenodd"/>
            <path id="Path-35" data-name="Path" d="M40.387,57.756v.361a.18.18,0,0,1,0,.361c-.179,0-.179,0-.179-.18a.666.666,0,0,1,.179-.541Z" transform="translate(49.871 74.077)" fill="#fff" fill-rule="evenodd"/>
            <path id="Path-36" data-name="Path" d="M40.858,53.413a.18.18,0,0,1,0,.361c-.179,0-.179,0-.179-.18s0-.18.179-.18Z" transform="translate(50.476 68.5)" fill="#fff" fill-rule="evenodd"/>
            <path id="Path-37" data-name="Path" d="M31.1,50.605h0a.387.387,0,0,1-.358.361c-.179,0-.179,0-.179-.18C30.746,50.786,30.926,50.605,31.1,50.605Z" transform="translate(37.49 64.996)" fill="#fff" fill-rule="evenodd"/>
            <path id="Path-38" data-name="Path" d="M19.46,54.778a.176.176,0,0,0-.179-.18c0-.18.179-.18.358-.361v.18A.631.631,0,0,0,19.46,54.778Z" transform="translate(22.993 69.66)" fill="#fff" fill-rule="evenodd"/>
            <path id="Path-39" data-name="Path" d="M26.122,48.462c0-.18,0-.18-.179-.361,0-.18,0-.18.179-.18A.339.339,0,0,1,26.122,48.462Z" transform="translate(31.55 61.548)" fill="#fff" fill-rule="evenodd"/>
            <path id="Path-40" data-name="Path" d="M14.03,54.575c.179-.18.537,0,.716-.18C14.567,54.575,14.209,54.395,14.03,54.575Z" transform="translate(16.249 69.863)" fill="#fff" fill-rule="evenodd"/>
            <path id="Path-41" data-name="Path" d="M40.832,53.673h0a.339.339,0,0,1,0-.541Z" transform="translate(50.501 68.241)" fill="#fff" fill-rule="evenodd"/>
            <path id="Path-42" data-name="Path" d="M36.02,58.342h0c0,.18-.179.18-.358.18A.623.623,0,0,1,36.02,58.342Z" transform="translate(44.033 74.933)" fill="#fff" fill-rule="evenodd"/>
            <path id="Path-43" data-name="Path" d="M20.924,58.071c-.179,0-.179-.18,0,0,0-.18,0-.361.179-.361s.179,0,.179.18C21.1,57.891,20.924,57.891,20.924,58.071Z" transform="translate(24.931 74.122)" fill="#fff" fill-rule="evenodd"/>
            <path id="Path-44" data-name="Path" d="M19.2,51.936h0c0-.361,0-.361.179-.541h0A.666.666,0,0,1,19.2,51.936Z" transform="translate(22.893 66.01)" fill="#fff" fill-rule="evenodd"/>
            <path id="Path-45" data-name="Path" d="M20.927,57.913h0c0-.18,0-.361.179-.361A.63.63,0,0,1,20.927,57.913Z" transform="translate(25.107 73.919)" fill="#fff" fill-rule="evenodd"/>
            <path id="Path-46" data-name="Path" d="M32.258,55.466h0a.251.251,0,0,1,0-.361C32.437,55.286,32.437,55.466,32.258,55.466Z" transform="translate(39.559 70.776)" fill="#fff" fill-rule="evenodd"/>
            <path id="Path-47" data-name="Path" d="M16.112,58.229c0-.18-.179-.18,0,0,0-.18,0-.361.179-.361A.632.632,0,0,0,16.112,58.229Z" transform="translate(18.821 74.324)" fill="#fff" fill-rule="evenodd"/>
            <path id="Path-48" data-name="Path" d="M34.587,52.071a.176.176,0,0,0-.179-.18.176.176,0,0,1,.179-.18v.361Z" transform="translate(42.422 66.415)" fill="#fff" fill-rule="evenodd"/>
            <path id="Path-49" data-name="Path" d="M19.905,50.053c0,.18.179,0,.179.18h-.179s-.179,0,0-.18Z" transform="translate(23.623 64.286)" fill="#fff" fill-rule="evenodd"/>
            <path id="Path-50" data-name="Path" d="M22.335,50.808h0v0Z" transform="translate(26.743 64.793)" fill="#fff" fill-rule="evenodd"/>
            <path id="Path-51" data-name="Path" d="M43.757,55.624a.176.176,0,0,0-.179-.18.176.176,0,0,1,.179-.18c.179,0,.179,0,.179.18A.176.176,0,0,0,43.757,55.624Z" transform="translate(54.2 70.978)" fill="#fff" fill-rule="evenodd"/>
            <path id="Path-52" data-name="Path" d="M43.7,55.466h0a.251.251,0,0,1,0-.361C43.88,55.286,43.88,55.466,43.7,55.466Z" transform="translate(54.256 70.776)" fill="#fff" fill-rule="evenodd"/>
            <path id="Path-53" data-name="Path" d="M40.286,57.854h0v-.18C40.466,57.674,40.466,57.854,40.286,57.854Z" transform="translate(49.972 73.978)" fill="#fff" fill-rule="evenodd"/>
            <path id="Path-54" data-name="Path" d="M28.922,57.519v-.361h0C29.1,57.338,29.1,57.519,28.922,57.519Z" transform="translate(35.375 73.412)" fill="#fff" fill-rule="evenodd"/>
            <path id="Path-55" data-name="Path" d="M14.567,54.313H14.03A.335.335,0,0,1,14.567,54.313Z" transform="translate(16.249 69.584)" fill="#fff" fill-rule="evenodd"/>
            <path id="Path-56" data-name="Path" d="M30.769,50.684h0c0,.18,0,.18-.179.18s-.179,0-.179-.18C30.769,50.865,30.769,50.865,30.769,50.684Z" transform="translate(37.288 65.097)" fill="#fff" fill-rule="evenodd"/>
            <path id="Path-57" data-name="Path" d="M25.943,58.652h0c0-.361.179-.361,0,0Z" transform="translate(31.55 74.983)" fill="#fff" fill-rule="evenodd"/>
            <path id="Path-58" data-name="Path" d="M30.59,50.763h0a.176.176,0,0,1-.179.18h0Z" transform="translate(37.288 65.199)" fill="#fff" fill-rule="evenodd"/>
            <path id="Path-59" data-name="Path" d="M56.746,43.94v-.361h0Z" transform="translate(71.112 55.971)" fill="#99ae9d" fill-rule="evenodd"/>
            <path id="Path-60" data-name="Path" d="M14.889,51.97h0c-.179-.18-.179-.18,0-.18Z" transform="translate(17.18 66.517)" fill="#fff" fill-rule="evenodd"/>
            <path id="Path-61" data-name="Path" d="M14.052,54.237c0,.18,0,.18-.179.361C13.873,54.417,13.873,54.417,14.052,54.237Z" transform="translate(16.047 69.66)" fill="#fff" fill-rule="evenodd"/>
            <path id="Path-62" data-name="Path" d="M25,52.734Z" transform="translate(30.342 67.556)" fill="#fff" fill-rule="evenodd"/>
            <path id="Path-63" data-name="Path" d="M14.343,54.5v-.18C14.522,54.316,14.343,54.5,14.343,54.5Z" transform="translate(16.651 69.762)" fill="#fff" fill-rule="evenodd"/>
            <path id="Path-64" data-name="Path" d="M56.668,44.628v-.18c.179,0,.179.18,0,.18Z" transform="translate(71.012 57.087)" fill="#96bcab" fill-rule="evenodd"/>
            <path id="Path-65" data-name="Path" d="M19.438,54.338h0v-.18C19.617,54.338,19.438,54.338,19.438,54.338Z" transform="translate(23.195 69.559)" fill="#fff" fill-rule="evenodd"/>
            <path id="Path-66" data-name="Path" d="M19.281,51.395Z" transform="translate(22.993 66.01)" fill="#fff" fill-rule="evenodd"/>
            <path id="Path-67" data-name="Path" d="M14.388,54.361Z" transform="translate(16.607 69.716)" fill="#fff" fill-rule="evenodd"/>
            <path id="Path-68" data-name="Path" d="M20.77,57.947Z" transform="translate(24.906 74.426)" fill="#dadf21" fill-rule="evenodd"/>
            <path id="Path-69" data-name="Path" d="M14.105,54.237Z" transform="translate(16.173 69.66)" fill="#fff" fill-rule="evenodd"/>
            <path id="Path-70" data-name="Path" d="M20.815,57.789Z" transform="translate(24.861 74.223)" fill="#dadf21" fill-rule="evenodd"/>
            <path id="Path-71" data-name="Path" d="M33.6,25.682c0-2.705-.179-5.591-.179-8.3V15.222a2.911,2.911,0,0,0-.716,1.262c-.179.541-.179.9-.358,1.443,0,.18-.179.361-.179.541-.179.361-.358.361-.716.18a.993.993,0,0,1-.537-.9,5.026,5.026,0,0,1-.179-1.623,1.09,1.09,0,0,0-.179-.721c-.179.361-.179.9-.358,1.262s-.179.721-.537,1.082c-.179.361-.358.361-.716,0a3.253,3.253,0,0,1-.716-1.623V14.861c0-.18,0,0-.179,0-.179.18-.358.541-.537.721-.358.18-.537.18-.716-.18a1.973,1.973,0,0,1-.179-.9V13.058l-.537.541a1.354,1.354,0,0,1-.716.361A.722.722,0,0,1,25,13.238a3.063,3.063,0,0,1,.537-1.8c.179-.18.179-.361.358-.541H25.54c-.537,0-.537-.18-.537-.721a1.371,1.371,0,0,1,.358-.721,4.767,4.767,0,0,1,.9-1.082c.179-.18.179-.18.179-.541-.179-.361,0-.721.358-1.082a4.478,4.478,0,0,1,1.253-.721c.358-.18.716-.18.9-.361-.716-.721-.537-.721.179-1.082a3.982,3.982,0,0,1,3.76-.18,5.349,5.349,0,0,1,1.432.721c.358.18.537.18.716,0A6.019,6.019,0,0,1,38.61,4.04a3.027,3.027,0,0,1,1.253.18,1.2,1.2,0,0,1,.716.9c0,.18.179.18.358.361a5.064,5.064,0,0,1,2.148.721c.716.361.9.9.179,1.623.9.361,1.074,1.082,1.253,1.984a1.177,1.177,0,0,0-1.074-.18.387.387,0,0,0,.358.361,7.323,7.323,0,0,1,.9,1.623,1.55,1.55,0,0,1,0,1.262c-.716,0-.9-.721-1.432-.721a.251.251,0,0,0,0,.361,3.54,3.54,0,0,1-.179,2.344c-.179.361-.179.361-.537,0-.179-.18-.358-.361-.358-.541-.179-.18-.179-.541-.537-.721,0,.361.179.9.179,1.262a3.123,3.123,0,0,1-.358,2.164.441.441,0,0,1-.716.18.939.939,0,0,1-.358-.721c-.179-.361-.179-.721-.358-.9,0-.18-.179-.361-.358-.541a7.359,7.359,0,0,1,0,1.984,1.955,1.955,0,0,1-.537,1.263q-.269.541-.537,0a.966.966,0,0,1-.537-.721c-.179-.361-.358-.9-.537-1.262s-.179-.721-.537-.9v3.427a22,22,0,0,0,.179,3.427,21.975,21.975,0,0,0,.179,3.427c.179.361.179.721.358.9a.387.387,0,0,0-.358.361c0,1.984.179,4.148.179,6.132,0,.18,0,.361.358.361s.716,0,.9.361c.179.18.179.18.358,0,.537,0,.716,0,.9.541a.387.387,0,0,0,.358.361c.358,0,.358.361.179.721a.387.387,0,0,1-.358.361l-.179.18a4.663,4.663,0,0,1-3.044.9,23.75,23.75,0,0,0-3.581,0,1.31,1.31,0,0,1-1.074-.361c-.179-.18-.537-.361-.716-.541s-.358-.18-.358-.361c-.179-.361,0-.721.358-.721a.386.386,0,0,0,.358-.361c0-.18.179-.361.537-.361s.716,0,.9-.361a.655.655,0,0,1,.537-.18c.358,0,.358,0,.358-.361V31.092a21.976,21.976,0,0,0-.179-3.427c0-.361,0-.541-.358-.541C33.418,26.4,33.239,26.042,33.6,25.682Z" transform="translate(30.342 5.157)" fill="#037c5a" fill-rule="evenodd"/>
            <path id="Path-72" data-name="Path" d="M19.662,20.338H19.3c-.179,0-.179,0-.179-.18a3.264,3.264,0,0,1,1.97-1.8,10.116,10.116,0,0,1,3.939-1.263,18.886,18.886,0,0,1,8.952.541,23.1,23.1,0,0,1,8.594,5.05l.179.18c.179.18.179.18.358,0l.537-.541a22.474,22.474,0,0,1,9.131-4.869,15.759,15.759,0,0,1,10.384.361c.179,0,.358.18.537.18a5.5,5.5,0,0,1,2.686,1.8c0,.18.358.541.179.721-.358.18-.537,0-.9-.18a16.838,16.838,0,0,0-6.625-.9A20.6,20.6,0,0,0,51.174,21.6,26.669,26.669,0,0,0,45.8,24.846c-.537.361-.537.361-.179.9.537.721,1.253,1.443,1.79,2.164.179-.361.179-.541.358-.9A.964.964,0,0,1,49.2,26.65a1.559,1.559,0,0,1,.537,2.525c-.179.18-.358.361-.537.361a.7.7,0,0,0,0,1.262c.179.18.358,0,.537,0a1.563,1.563,0,0,1,1.253-.18A1.958,1.958,0,0,1,52.606,32.6v.9a1.77,1.77,0,0,1-2.149,1.623,4.075,4.075,0,0,1-2.148-1.082,14.508,14.508,0,0,1-2.148-2.525c-.179-.18-.179-.361-.358-.361-.179.18-.537.18-.537.541,0,.721-.179,1.262-.716,1.443a1.451,1.451,0,0,1-1.612-.9c-.179-.9-.179-1.262.716-1.8.179-.18.537-.361.716-.541.358-.361.537-.361,0-.721-.537-.541-.9-1.082-1.433-1.623l-.179-.18c-.358-.18-.358-.18-.537.18-.179.541-.537.721-.9,1.082l-.537.541c-.358.361-.358.361,0,.721.358.18.716.541,1.074.721.179.18.179.361.358.541V32.24a1.593,1.593,0,0,1-1.432.9.849.849,0,0,1-.9-.9V31.7a.477.477,0,0,0-.537-.541c-.179,0-.358.18-.537.361a8.8,8.8,0,0,1-2.148,2.344,4.256,4.256,0,0,1-1.97,1.082c-1.253.361-2.148-.541-2.328-1.8a4,4,0,0,1,.179-1.443,1.932,1.932,0,0,1,2.507-1.263c.179,0,.179,0,.358.18.358.18.537,0,.716-.361s.179-.541-.179-.721c-1.253-.9-1.253-2.164,0-2.886.716-.36,1.074-.18,1.611.361.179.18.179.541.358.9a24.212,24.212,0,0,0,1.969-2.525.339.339,0,0,0,0-.541c-.179-.18-.358-.18-.537-.361a23.861,23.861,0,0,0-9.669-4.509,18.232,18.232,0,0,0-9.847.361Z" transform="translate(22.792 21.502)" fill="#037c5a" fill-rule="evenodd"/>
            <path id="Path-73" data-name="Path" d="M26.989,17.827c.179.361.537.361.9.361a2.657,2.657,0,0,0,1.611-.721c.179-.18.179-.361.358-.541.716,1.263,1.79.721,2.328-.36.179,0,.179,0,.179.18a.669.669,0,0,0,1.074,0c.179-.18.179-.361.358-.541a2.476,2.476,0,0,0,.716.541c.537.18.9,0,.9-.541v-.541c-.358-1.262-.537-2.525-.9-3.787,0-.18-.179-.541,0-.721,0-.18.179-.18.358-.18a.176.176,0,0,1,.179.18,10.733,10.733,0,0,0,.716,1.443c.179.18.179.361-.179.361-.179,0-.179.18-.179.361a7.994,7.994,0,0,1,.358,2.886v.541a1.087,1.087,0,0,1-1.611.721c-.179-.18-.358,0-.537.18-.537.721-.9.721-1.611.18l-.537.541a1,1,0,0,1-1.611,0l-.179-.18-.358.361a1.893,1.893,0,0,1-2.507.18c-.179,0-.179-.18-.358-.18a.334.334,0,0,0-.537,0,3.211,3.211,0,0,1-1.253.9c-.179,0-.179.18-.179.361a4.264,4.264,0,0,1-2.507,3.246c-.179,0-.358.18-.537.18a1.211,1.211,0,0,1-1.611-1.082v-.361c-.179,0-.179.18-.358.361a4.836,4.836,0,0,1-1.433,1.263c-.9.541-1.611.18-1.969-.9h.179a1.652,1.652,0,0,0,2.149-.541,21.55,21.55,0,0,1,1.969-2.164c.179-.18.358-.361.358-.541.179-.541,0-.721-.358-.721l-2.148-.541a3.744,3.744,0,0,1-1.074-.721c-.179-.18-.358-.361-.179-.721.179-.18.358-.18.716-.18s.537.18.716.541a.984.984,0,0,0,.9.541c.358,0,.716.18,1.074.18a1.19,1.19,0,0,1,1.074,1.263,2.924,2.924,0,0,1-.537,1.623l-.358.361a.8.8,0,0,0-.179.9.477.477,0,0,0,.537.541,2.071,2.071,0,0,0,1.79-.361,4.249,4.249,0,0,0,1.432-1.623c-.358,0-.716.18-1.074.18a.849.849,0,0,1-.9-.9.989.989,0,0,1,.716-1.082,1.177,1.177,0,0,1,1.074.18,2.255,2.255,0,0,0,1.074.18.623.623,0,0,0,.358-.18c.179-.18.358-.361.179-.541,0-.18-.358-.18-.537-.18h-.9c-.358,0-.537-.18-.358-.541,0-.361.179-.541.537-.721a3.367,3.367,0,0,1,3.223-.541c.358,0,.716.18.716.541s-.179.541-.537.9C27.526,17.466,27.168,17.646,26.989,17.827Z" transform="translate(18.866 14.094)" fill="#1d1d1b" fill-rule="evenodd"/>
            <path id="Path-74" data-name="Path" d="M47.066,14.878l.537-.541c.179-.18.179-.361-.179-.361a9.025,9.025,0,0,0-4.3.721c-.179.18-.537.18-.716.541a6.491,6.491,0,0,1,2.148,3.246,3.779,3.779,0,0,0,.716,1.082c.179.18.358.361.537.361a1.018,1.018,0,0,0,1.253-.721,13.742,13.742,0,0,1,.179-2.705c0-.361,0-.721.537-.9v4.509c0,.721.358,1.082,1.074.9.358,0,.537-.18.716-.541a2.46,2.46,0,0,1,1.97-1.443V15.78c0-.18,0-.541.179-.541a.387.387,0,0,1,.358.361,3.417,3.417,0,0,1,.358,1.443c-.537.18-.537.18-.537.541v1.262c.179.18.358,0,.537,0a.984.984,0,0,1,.9.541.777.777,0,0,1-.358,1.263.964.964,0,0,1-1.432-.361c-.179-.18,0-.361-.358-.541h-.716a1.4,1.4,0,0,0-.716.721c.179.18.358,0,.537,0,.716,0,.9.361,1.074,1.082a1.355,1.355,0,0,1-.9,1.262,1.017,1.017,0,0,1-1.253-.721c-.179-.18-.179-.361-.537-.361H48.5c-1.074,0-1.433-.18-1.612-1.262-.179,0-.358.18-.537.18a1.552,1.552,0,0,1-2.148-.721l-.537-1.082c0-.18,0-.361-.179-.361a.631.631,0,0,1-.179.361,2.166,2.166,0,0,1-.9.9,1.237,1.237,0,0,1-1.79-.541c-.179-.18-.179-.541-.358-.721,0-.361-.179-.361-.537-.541-.179,0-.358.18-.537.361a1.372,1.372,0,0,0-.358.721,1.4,1.4,0,0,1-.716.721.923.923,0,0,1-1.253-.541,5.027,5.027,0,0,1-.179-1.623.56.56,0,0,1,.179.36.939.939,0,0,0,.358.721c.358.541.716.541,1.253.18l.358-.361a4.779,4.779,0,0,1,.9-1.082c.179-.18.358-.361.537-.361.358,0,.716,0,.716.361,0,.18.179.541.179.721,0,.361.358.541.716.541a1.334,1.334,0,0,0,.9-.18c.179-.18.179-.361.358-.541a2.3,2.3,0,0,0-.179-1.082,3.233,3.233,0,0,0-.9-1.263.958.958,0,0,1,.179-1.443,3.908,3.908,0,0,1,.9-.541,9.754,9.754,0,0,1,4.476-.721h.179c.537,0,.537.361.358.9,0,.18-.179.18-.358.361a.658.658,0,0,1-.716.721Z" transform="translate(45.342 16.501)" fill="#1d1d1b" fill-rule="evenodd"/>
            <path id="Path-75" data-name="Path" d="M33.366,17.2c-.179.361-.179.721-.358,1.082v.361c0,.361.179.541.537.361a.983.983,0,0,0,.9-.541,6.9,6.9,0,0,1,3.044-1.984c-.179-.361-.179-.361-1.074-.361a.993.993,0,0,1,.537-.9,2.983,2.983,0,0,1,3.76.361.339.339,0,0,1,0,.541c-.179.18-.358.361-.537.361a2.53,2.53,0,0,1-1.074.361,2.012,2.012,0,0,0,1.969.361,1.092,1.092,0,0,0,.537-1.082c0-.721-.179-1.623-.179-2.344V12.687a1.331,1.331,0,0,1,.358-1.082c.358.541.537,1.262.9,1.8-.716.18-.537.721-.537,1.082v1.984a.666.666,0,0,1-.179.541A1.967,1.967,0,0,1,40.17,18.1a1.442,1.442,0,0,1-1.611-.721c-.358-.361-.358-.361-.716-.361A8.1,8.1,0,0,0,34.44,19a2.024,2.024,0,0,1-1.432.541c-.537,0-.716-.18-.716-.721A3.245,3.245,0,0,1,33.366,17.2C33.366,17.016,33.545,17.016,33.366,17.2Z" transform="translate(39.704 14.905)" fill="#1d1d1b" fill-rule="evenodd"/>
            <path id="Path-76" data-name="Path" d="M33.32,14.731v.721a.387.387,0,0,1-.358.361,4.739,4.739,0,0,1-2.148-.541,1.79,1.79,0,0,1-.9-.721l-.537-.541c-.358-.361-.537-.361-.9,0a2.494,2.494,0,0,0-.537.721c-.179.361-.179.541-.358.9-.179.721-.537.9-1.253.9a1.137,1.137,0,0,1-1.074-.9v-.361c0-.361-.179-.721.179-1.082.179.361.358.9.537,1.262.358.541.9.361,1.253-.18l.537-1.082a3.236,3.236,0,0,1,.9-1.263c.537-.541.9-.541,1.253.18a3.563,3.563,0,0,0,2.148,1.443C32.246,14.731,32.783,14.731,33.32,14.731Z" transform="translate(30.619 16.108)" fill="#1e1e1c" fill-rule="evenodd"/>
            <path id="Path-77" data-name="Path" d="M30.534,15.517c-.179,0-.358,0-.358-.18v-.721a19.383,19.383,0,0,0,4.3-1.262c.179,0,.179-.18.358-.361,0-.18.179-.18.358-.18s.179.18.179.361a.914.914,0,0,0,.9.721.476.476,0,0,0,.537-.541v-.361a.358.358,0,1,1,.716,0v.541A1.526,1.526,0,0,1,36.263,14.8a.923.923,0,0,1-1.253-.541.176.176,0,0,0-.179-.18A15.086,15.086,0,0,1,30.534,15.517Z" transform="translate(36.986 16.224)" fill="#1e1e1c" fill-rule="evenodd"/>
            <path id="Path-78" data-name="Path" d="M14.108,17.558a2.473,2.473,0,0,1,.716.541,1.362,1.362,0,0,0,.9.361.476.476,0,0,0,.537-.541V17.2a3.088,3.088,0,0,1,.179-1.262c.179-.541.537-.721,1.074-.361a1.077,1.077,0,0,0,1.432,0c.358-.18.358-.361.179-.721a.551.551,0,0,1,0-.721c.179,0,.358,0,.358.18a1.85,1.85,0,0,1,.358,1.623.982.982,0,0,1-1.074.721,2.639,2.639,0,0,1-1.253-.18c-.358-.18-.537-.18-.716.361a1.55,1.55,0,0,0,0,1.262,1.529,1.529,0,0,1-.358,1.263c-.537.36-.9.18-1.432-.18A2.074,2.074,0,0,1,14.108,17.558Z" transform="translate(16.349 18.15)" fill="#1f1e1c" fill-rule="evenodd"/>
            <path id="Path-79" data-name="Path" d="M38.04,11.921a1.635,1.635,0,0,1,.179.9c.179.361.179.721.358,1.082s.179.541-.358.541H38.04v3.427a2.7,2.7,0,0,1-.537,1.262V13Q37.234,12.462,38.04,11.921Z" transform="translate(46.31 15.311)" fill="#22221f" fill-rule="evenodd"/>
            <path id="Path-80" data-name="Path" d="M45.112,22.383v-.9c-.179-1.984-.179-3.787-.358-5.771a1.642,1.642,0,0,1,.537-1.262c.179.721.537,1.262.716,1.984h0c-.537,0-.537,0-.358.541,0,1.082.179,2.164.179,3.246a6.456,6.456,0,0,1-.358,1.8l-.358.361Z" transform="translate(55.71 18.556)" fill="#1e1e1c" fill-rule="evenodd"/>
            <path id="Path-81" data-name="Path" d="M26.67,16.79c-.179-.541-.179-1.082-.358-1.443a19.809,19.809,0,0,0-.9-3.066,4.507,4.507,0,0,1-.179-1.623,4.767,4.767,0,0,1,.9,1.082v.18c-.179.361,0,.541.179.9.179.721.358,1.262.537,1.984A6.815,6.815,0,0,1,26.67,16.79Z" transform="translate(30.644 13.689)" fill="#201f1d" fill-rule="evenodd"/>
            <path id="Path-82" data-name="Path" d="M20.086,13.544a1.12,1.12,0,0,1-.358-1.263.358.358,0,1,1,.716,0c.179.18,0,.541.179.721a.666.666,0,0,1,.179.541h-.179c-.358-.18-.358,0-.537.18-.179.361-.537.721-.716,1.082a.928.928,0,0,1-.716.361A3.175,3.175,0,0,0,20.086,13.544Z" transform="translate(22.188 15.311)" fill="#242220" fill-rule="evenodd"/>
            <path id="Path-83" data-name="Path" d="M31.8,14.853h0c.716-.541.716-.541,1.074.18l-.537.541c-.358-.18-.358-.541-.537-.541s-.358.361-.537.361l-.537-.541v-.18c.179-.18.358-.541.537-.541C31.62,14.492,31.62,14.853,31.8,14.853Z" transform="translate(37.691 18.15)" fill="#23211f" fill-rule="evenodd"/>
            <path id="Path-84" data-name="Path" d="M24.251,12a.824.824,0,0,1,0,.9c-.179.361-.179.541-.716.541-.179,0-.179,0-.358.18s-.358.361-.716.18c-.179,0-.358-.361-.358-.721V12.9a.176.176,0,0,1,.179-.18c.179,0,0,.18,0,.18,0,.18,0,.361.179.361s.179-.18.358-.18A.666.666,0,0,0,23,12.541c.179,0,.179.18.179.361.179.18.179.18.358,0A7.01,7.01,0,0,0,24.251,12Z" transform="translate(26.617 15.412)" fill="#272523" fill-rule="evenodd"/>
            <path id="Path-85" data-name="Path" d="M38.727,15.326c-.179,0-.179-.18-.358-.18-.179-.18-.358-.361-.179-.541s0-.361-.179-.541a.34.34,0,0,1,0-.541l.179-.18h.179c.179,0,.358.361.537.541s0,.18,0,.361c-.179.18-.179.361,0,.361a.34.34,0,0,1,0,.541A.176.176,0,0,1,38.727,15.326Z" transform="translate(46.877 17.136)" fill="#23211f" fill-rule="evenodd"/>
            <path id="Path-86" data-name="Path" d="M14.265,14.873c.179-.18.179-.541.358-.721H14.8c.179,0,.358.18.537.18s.179-.18.358-.361c0-.18.179-.18.358,0,.179,0,.179.18.358.18s.179.18.179.361a.631.631,0,0,1-.179.361c-.179,0-.358-.18-.716-.18-.179.18-.179.361-.358.541C14.623,15.233,14.444,15.053,14.265,14.873Z" transform="translate(16.551 17.77)" fill="#242422" fill-rule="evenodd"/>
            <path id="Path-87" data-name="Path" d="M26.715,12.335c-.179-.18-.358-.361-.537-.361v-.18c.537-.541.358-.721,1.074,0h0c-.179.18-.358.361-.358.541a.387.387,0,0,0,.358.361v.18l-.358.361-.179.18C26.178,13.056,26.178,13.056,26.715,12.335Z" transform="translate(31.852 14.537)" fill="#242422" fill-rule="evenodd"/>
            <path id="Path-88" data-name="Path" d="M33.971,11.29a1.37,1.37,0,0,0-.358.721c0,.18.179.18.358.18.179.18.179.541,0,.541a.542.542,0,0,1-.716,0,.666.666,0,0,1-.179-.541c0-.361.358-.721.9-.9Z" transform="translate(40.711 14.5)" fill="#252523" fill-rule="evenodd"/>
            <path id="Path-89" data-name="Path" d="M22.024,15.944a2.744,2.744,0,0,1,2.507-1.082,6.257,6.257,0,0,1-2.507,1.082Z" transform="translate(26.517 19.043)" fill="#262422" fill-rule="evenodd"/>
            <path id="Path-90" data-name="Path" d="M38.876,13.274a13.342,13.342,0,0,1,2.865-.721A3.632,3.632,0,0,1,38.876,13.274Z" transform="translate(48.16 16.122)" fill="#2a2624" fill-rule="evenodd"/>
            <path id="Path-91" data-name="Path" d="M42.177,15.631c.179-.18.358-.18.537-.361,0-.18-.179,0-.179,0-.358,0-.537-.18-.179-.541a1.363,1.363,0,0,1,.9-.361.176.176,0,0,1,.179.18,1.09,1.09,0,0,1-.179.721,1.911,1.911,0,0,1-1.074.361Z" transform="translate(52.379 18.454)" fill="#242422" fill-rule="evenodd"/>
            <path id="Path-92" data-name="Path" d="M36.746,11.681a6.253,6.253,0,0,1-2.507,1.082c-.179,0-.358.18-.537,0,0-.18.179-.18.358-.36a8.549,8.549,0,0,1,2.685-.721Z" transform="translate(41.516 14.829)" fill="#2a2726" fill-rule="evenodd"/>
            <path id="Path-93" data-name="Path" d="M37.273,12.338a13.446,13.446,0,0,1-2.328,1.082h-.179c-.179,0-.358,0-.358-.18a.176.176,0,0,1,.179-.18,13.957,13.957,0,0,1,2.507-.9A.176.176,0,0,1,37.273,12.338Z" transform="translate(42.422 15.615)" fill="#282623" fill-rule="evenodd"/>
            <path id="Path-94" data-name="Path" d="M33.557,13.974l.537.541-.716.721a2.486,2.486,0,0,1-.537-.721A2.474,2.474,0,0,1,33.557,13.974Z" transform="translate(40.409 17.947)" fill="#252220" fill-rule="evenodd"/>
            <path id="Path-95" data-name="Path" d="M16.694,13.342v.721c0,.18-.179.361-.358.18-.179,0-.179,0-.358.18s-.179.18-.358.18-.179-.18-.179-.361v-.361c.358.361.358.361.537-.18.179,0,.179.361.358.18S16.515,13.342,16.694,13.342Z" transform="translate(18.061 17.136)" fill="#373635" fill-rule="evenodd"/>
            <path id="Path-96" data-name="Path" d="M16.049,17.019a.176.176,0,0,0-.179.18c0,.18-.179.361-.179.541-.9-.18-.9-.361-.358-1.082.179,0,.358.361.716.18Z" transform="translate(17.452 21.395)" fill="#272725" fill-rule="evenodd"/>
            <path id="Path-97" data-name="Path" d="M44.451,16.658c0,.18-.179.361-.179.541s-.179.361.179.541c.179,0,.179.18,0,.361,0,.18-.179.18-.358.18s-.358,0-.358-.18V17.56a1.8,1.8,0,0,1,.716-.9Z" transform="translate(54.401 21.395)" fill="#2b2926" fill-rule="evenodd"/>
            <path id="Path-98" data-name="Path" d="M15.541,17.221a.176.176,0,0,0-.179-.18c0-.18.179-.361.358-.541a1.352,1.352,0,0,1,.716.361v.18C16.078,17.582,16.078,17.582,15.541,17.221Z" transform="translate(17.96 21.192)" fill="#262522" fill-rule="evenodd"/>
            <path id="Path-99" data-name="Path" d="M35.08,14.6h0c0,.9,0,.9.537.721v.18c-.179.36-.358.36-.537.36s-.358-.36-.358-.721A.666.666,0,0,1,34.9,14.6c0,.18,0,0,.179,0Z" transform="translate(42.825 18.581)" fill="#353432" fill-rule="evenodd"/>
            <path id="Path-100" data-name="Path" d="M20.658,15.62c.179.18.179.18.537.18v.18c-.179.361-.358.541-.537.361-.179,0-.358-.361-.358-.721a.666.666,0,0,1,.179-.541C20.837,15.259,20.658,15.44,20.658,15.62Z" transform="translate(24.302 19.367)" fill="#32302e" fill-rule="evenodd"/>
            <path id="Path-101" data-name="Path" d="M21.207,12.388a.624.624,0,0,0,.358.18c.179,0,.179,0,.179.18-.179.18-.358.361-.537.361-.179-.18-.358-.361-.358-.541a.665.665,0,0,1,.179-.541C21.386,11.847,21.028,12.208,21.207,12.388Z" transform="translate(25.007 15.385)" fill="#292927" fill-rule="evenodd"/>
            <path id="Path-102" data-name="Path" d="M17.814,12.947a.176.176,0,0,0,.179.18c.179-.18.179,0,.179.18a.335.335,0,0,1-.537,0C17.814,13.128,17.635,13.128,17.814,12.947Z" transform="translate(20.879 16.629)" fill="#443c3a" fill-rule="evenodd"/>
            <path id="Path-103" data-name="Path" d="M25.439,13.443a.666.666,0,0,0-.179.541v.541c-.179-.361,0-.9-.179-1.262C25.439,13.263,25.439,13.263,25.439,13.443Z" transform="translate(30.443 17.035)" fill="#afa4a4" fill-rule="evenodd"/>
            <path id="Path-104" data-name="Path" d="M20.557,15.823c-.179-.18,0-.361-.179-.541,0-.18.179-.18.179-.36a.176.176,0,0,1,.179.18C20.736,15.282,20.557,15.642,20.557,15.823Z" transform="translate(24.403 19.164)" fill="#534d4c" fill-rule="evenodd"/>
            <path id="Path-105" data-name="Path" d="M21.106,12.766c-.179,0-.179-.18-.179-.361v-.361c0-.18,0-.18.179-.361Z" transform="translate(25.107 15.007)" fill="#524d4b" fill-rule="evenodd"/>
            <path id="Path-106" data-name="Path" d="M17.89,13.252a.176.176,0,0,1-.179.18c-.179-.18-.179-.361,0-.721A1.4,1.4,0,0,1,17.89,13.252Z" transform="translate(20.804 16.325)" fill="#635f5d" fill-rule="evenodd"/>
            <path id="Path-107" data-name="Path" d="M26.335,8.707c0-.18,0-.18.179-.18v.721C26.335,9.067,26.514,8.887,26.335,8.707Z" transform="translate(32.053 10.951)" fill="#a7d9c1" fill-rule="evenodd"/>
            <path id="Path-108" data-name="Path" d="M35.763,12.44c0-.18-.179,0-.179-.18a.176.176,0,0,0,.179-.18h.179A.631.631,0,0,1,35.763,12.44Z" transform="translate(43.932 15.514)" fill="#94807f" fill-rule="evenodd"/>
            <path id="Path-109" data-name="Path" d="M42.369,14.921h0c0,.18-.179.18-.358.18A.553.553,0,0,1,42.369,14.921Z" transform="translate(52.187 19.164)" fill="#6a6362" fill-rule="evenodd"/>
            <path id="Path-110" data-name="Path" d="M20.636,15.2a.176.176,0,0,0-.179-.18c0-.18,0-.18.179-.18V15.2Z" transform="translate(24.504 19.063)" fill="#bbb0ae" fill-rule="evenodd"/>
            <path id="Path-111" data-name="Path" d="M34.979,14.729h0c0-.18,0-.18-.179-.18,0-.18,0-.18.179-.18v.361Z" transform="translate(42.925 18.454)" fill="#a6a09f" fill-rule="evenodd"/>
            <path id="Path-112" data-name="Path" d="M32.762,14.2h0v-.18C32.941,14.016,32.941,14.016,32.762,14.2Z" transform="translate(40.308 17.905)" fill="#867c7b" fill-rule="evenodd"/>
            <path id="Path-113" data-name="Path" d="M21.341,12.383a.176.176,0,0,0-.179-.18.247.247,0,0,1,.358,0Z" transform="translate(25.41 15.57)" fill="#746362" fill-rule="evenodd"/>
            <path id="Path-114" data-name="Path" d="M41.328,13.737h0v.18h-.179A.176.176,0,0,1,41.328,13.737Z" transform="translate(51.079 17.643)" fill="#4d4745" fill-rule="evenodd"/>
            <path id="Path-115" data-name="Path" d="M33.468,11.287c0-.18.179-.18,0,0Z" transform="translate(41.214 14.322)" fill="#958f8e" fill-rule="evenodd"/>
            <path id="Path-116" data-name="Path" d="M35.035,11.722h0c0-.18.179-.361,0,0C35.214,11.542,35.214,11.722,35.035,11.722Z" transform="translate(43.227 14.788)" fill="#bbb0af" fill-rule="evenodd"/>
            <path id="Path-117" data-name="Path" d="M44.049,16.7h0C44.228,16.523,44.228,16.7,44.049,16.7Z" transform="translate(54.804 21.35)" fill="#85706f" fill-rule="evenodd"/>
            <path id="Path-118" data-name="Path" d="M33.468,11.21h0v0Z" transform="translate(41.214 14.398)" fill="#4f4441" fill-rule="evenodd"/>
            <path id="Path-119" data-name="Path" d="M34.8,14.526v0Z" transform="translate(42.925 18.657)" fill="#403836" fill-rule="evenodd"/>
            <path id="Path-120" data-name="Path" d="M22.069,15.316Z" transform="translate(26.472 19.671)" fill="#5a6b6b" fill-rule="evenodd"/>
            <path id="Path-121" data-name="Path" d="M41.224,13.816Z" transform="translate(51.004 17.745)" fill="#687474" fill-rule="evenodd"/>
            <path id="Path-122" data-name="Path" d="M34.8,14.447Z" transform="translate(42.925 18.556)" fill="#403836" fill-rule="evenodd"/>
            <path id="Path-123" data-name="Path" d="M29.907,30.545a1.209,1.209,0,0,0,1.074.721c.716.18,1.253-.18,1.253-1.082v-.361c0-.18,0-.361.179-.361.716-.541.716-.541,1.074.18a9.469,9.469,0,0,0,2.148,2.525,4.262,4.262,0,0,0,1.97,1.082,1.574,1.574,0,0,0,1.969-1.443V30.725A1.9,1.9,0,0,0,37.248,29.1c-.179,0-.358.18-.537.18-.358.18-.358.18-.716-.18a.631.631,0,0,1-.179-.361c-.358-.541-.358-.541.179-.9.179-.18.358-.18.537-.361a1.41,1.41,0,0,0,.358-1.443,1.574,1.574,0,0,0-1.253-1.082.984.984,0,0,0-.9.541L34.2,26.577c-.9-1.082-1.611-1.984-2.507-2.885a.176.176,0,0,1,.179-.18,27.221,27.221,0,0,1,9.668-4.869,23.876,23.876,0,0,1,6.266-.721A28.366,28.366,0,0,1,53.183,19c-.716,1.443-1.432,3.066-1.97,4.509-5.192,11.362-10.385,22.9-15.577,34.266,0,.18,0,.18-.179.361s-.179.361,0,.721a9.7,9.7,0,0,0,1.79,2.886,20.585,20.585,0,0,0,8.057,5.41,21.853,21.853,0,0,0,6.8,1.443,17.481,17.481,0,0,0,9.131-1.443,25.309,25.309,0,0,0,6.446-4.328A15.027,15.027,0,0,0,70.55,59.04c.179-.361.179-.541,0-.721l-1.074-2.705L54.436,20.446c-.179-.18-.179-.361-.179-.721,0-.18,0-.18.179-.18a14.95,14.95,0,0,0,2.149,1.443,31.559,31.559,0,0,0,10.564,4.148c1.253.18,2.328.541,3.581.721a.477.477,0,0,1,.537.541c.9,3.787,1.97,7.394,2.865,11.181,3.4,12.8,6.8,25.609,10.205,38.594v.18c.179.18,0,.361-.179.361-.9.18-1.79.541-2.686.721a38.869,38.869,0,0,1-6.446.541,37.977,37.977,0,0,1-7.878-1.443c-2.328-.721-4.655-1.623-7.162-2.525A44.071,44.071,0,0,0,53,72.2a32.888,32.888,0,0,0-7.341-.361,33.317,33.317,0,0,0-15.756,4.689.176.176,0,0,0-.179.18c-.179,0-.179,0-.179-.18V31.086C29.728,30.906,29.549,30.545,29.907,30.545Z" transform="translate(36.181 23.017)" fill="#f1c250" fill-rule="evenodd"/>
            <path id="Path-124" data-name="Path" d="M36.936,18.961a21.5,21.5,0,0,1,3.223-.9,19,19,0,0,1,12.175,2.164,31.262,31.262,0,0,1,5.192,3.246c.179,0,.179.18.358.361-.9.9-1.611,1.984-2.507,3.066-.179-.361-.179-.721-.358-.9a.939.939,0,0,0-1.611-.361,1.441,1.441,0,0,0-.179,2.345,2.473,2.473,0,0,0,.716.541c.179,0,.179.18.179.361a2.406,2.406,0,0,1-.537.9c-.179.18-.179.18-.358,0s-.537-.18-.716-.361a1.84,1.84,0,0,0-2.149,1.263,1.99,1.99,0,0,0,0,1.443,1.813,1.813,0,0,0,1.97,1.443,4.863,4.863,0,0,0,2.148-1.082,9.473,9.473,0,0,0,2.149-2.525c0-.18.179-.18.179-.361l.179-.18c.179.18.358.18.537.361a.666.666,0,0,1,.179.541c0,.361,0,.9.358,1.082a1.52,1.52,0,0,0,1.253,0,2.476,2.476,0,0,0,.716-.541V76.852c-.358,0-.358-.18-.716-.361a37.049,37.049,0,0,0-9.489-4.148,31.282,31.282,0,0,0-9.131-.721A52.52,52.52,0,0,0,26.73,74.868a12.277,12.277,0,0,0-1.432.541,14.772,14.772,0,0,1-3.76,1.082,35.9,35.9,0,0,1-8.773.541,41.373,41.373,0,0,1-6.625-.721c-.537-.18-.537,0-.358-.721,2.328-8.3,4.476-16.411,6.8-24.707,2.149-7.575,4.118-15.329,6.266-22.9.179-.721.179-1.443.358-1.984,0-.541.179-.541.537-.541a42.651,42.651,0,0,0,11.638-3.066,35.1,35.1,0,0,0,4.476-2.344c.179-.18.358-.18.537-.361a.665.665,0,0,1-.179.541c-1.969,4.148-3.76,8.3-5.729,12.624-3.76,8.476-7.7,16.772-11.459,25.248,0,.18,0,.18-.179.361s0,.541,0,.721A10.241,10.241,0,0,0,21,62.425a18.4,18.4,0,0,0,7.341,4.689,25.5,25.5,0,0,0,7.341,1.623,17.251,17.251,0,0,0,10.385-2.164,20.16,20.16,0,0,0,6.446-5.23A10.247,10.247,0,0,0,53.945,59c.179-.18.179-.361.358-.541-.179,0-.358,0-.358-.18-.537-1.443-1.074-2.705-1.611-4.148-4.834-11.542-9.668-22.9-14.682-34.446A1.4,1.4,0,0,1,36.936,18.961Z" transform="translate(5.518 22.879)" fill="#f1c250" fill-rule="evenodd"/>
            <path id="Path-125" data-name="Path" d="M11.522,57.428C11.88,56.346,12.6,55.264,12.954,54c5.371-11.722,10.564-23.264,15.935-34.987,0-.18.179-.361.179-.541a.665.665,0,0,1,.179.541c5.371,12.8,10.743,25.429,16.114,38.233a.176.176,0,0,0,.179.18c-.179.361-.358.361-.716.18-7.878-.18-15.756,0-23.634-.18H12.059C12.059,57.609,11.7,57.609,11.522,57.428Z" transform="translate(13.027 23.727)" fill="#f1c250" fill-rule="evenodd"/>
            <path id="Path-126" data-name="Path" d="M32.37,57.124c1.074-2.525,2.328-4.869,3.4-7.394,3.76-8.3,7.7-16.772,11.459-25.068.9-1.8,1.611-3.607,2.507-5.591,0-.18,0-.361.358-.361.179.361.179.541.358.9C55.825,32.236,61.2,44.68,66.568,57.3v.18c-.179.361-.358.18-.537.18-8.057-.18-15.935,0-23.992-.18H33.266C32.907,57.3,32.549,57.485,32.37,57.124Z" transform="translate(39.805 24.031)" fill="#f1c250" fill-rule="evenodd"/>
            <path id="Path-127" data-name="Path" d="M16.8,24.079c-.358,1.263-.716,2.525-1.074,3.607L4.447,68.8v.18c0,.361,0,.541.358.721a6.317,6.317,0,0,0,1.79.361,21.527,21.527,0,0,0,3.4-.18c.179,0,.358,0,.358-.18,0-.361.179-.18.358-.18a15.281,15.281,0,0,0,2.865-.18c.179,0,.358,0,.358-.18s.179,0,.358,0a49.985,49.985,0,0,0,5.192.18,41.164,41.164,0,0,0,8.236-.9c.358,0,.537-.18.716-.18a86.948,86.948,0,0,1,9.668-3.246,34.617,34.617,0,0,1,9.669-1.082,29.644,29.644,0,0,1,15.4,4.689,3.746,3.746,0,0,1,1.074.721c.358.18.537.18.716,0a56.859,56.859,0,0,1,5.729-2.885,29.513,29.513,0,0,1,8.773-1.984,36.64,36.64,0,0,1,7.7.18A38.544,38.544,0,0,1,96.118,67c2.328.9,4.655,1.623,6.983,2.344a29.531,29.531,0,0,0,9.668,1.082,12,12,0,0,0,2.507-.361c.179,0,.358-.18.358.18,0,.18.179.18.358.18a11.639,11.639,0,0,0,2.507,0c.179,0,.358-.18.358.361a.176.176,0,0,0,.179.18,25.024,25.024,0,0,0,5.192-.18h.179c.537-.18.537-.361.537-.9-.716-2.525-1.253-5.05-1.97-7.394l-7.52-28.675c-.716-3.066-1.611-5.951-2.328-9.017,0-.18-.179-.361,0-.541h1.432c.179,0,.179.18.179.361.179.9.537,1.8.716,2.705,2.507,9.558,4.834,19.117,7.341,28.675.9,3.787,1.97,7.575,2.865,11.362a9.566,9.566,0,0,1,.537,2.164v1.443a2.087,2.087,0,0,1-.9,1.262c-.358.18-.537.361-.9.18-2.686,0-5.55-.18-8.236-.18-3.581,0-6.983-.18-10.564-.18-4.118,0-8.415-.18-12.533-.18-1.97,0-4.118,0-6.088-.18-4.118,0-8.415-.18-12.533-.18-1.97,0-3.939,0-5.909-.18-.358,0-.537,0-.716.361a4.062,4.062,0,0,1-2.865,1.984,4.211,4.211,0,0,1-3.581-.9c-.358-.361-.9-.721-1.074-1.262-.179-.361-.537-.361-.9-.361h-22.2c-5.371,0-10.564,0-15.935.18-5.729,0-11.28,0-17.009.18a1.605,1.605,0,0,1-.9-.18A1.636,1.636,0,0,1,2.3,69.345a21.938,21.938,0,0,1,.9-3.246c3.76-13.706,7.52-27.412,11.28-41.3V24.44a.387.387,0,0,1,.358-.361Z" transform="translate(1.124 30.926)" fill="#f1c250" fill-rule="evenodd"/>
            <path id="Path-128" data-name="Path" d="M32.833,35.526c.179.18.358,0,.537,0h7.162c7.341,0,14.682,0,22.023.18h5.013a.655.655,0,0,1,.537.18c0,.18-.179.361-.179.541A11.171,11.171,0,0,1,64.882,40.4a21.3,21.3,0,0,1-9.847,5.41,18.365,18.365,0,0,1-6.267.361,19.97,19.97,0,0,1-7.162-1.8,20.125,20.125,0,0,1-6.266-3.787A13.771,13.771,0,0,1,32.3,36.428c0-.18,0-.18-.179-.361-.179-.361-.179-.361.358-.361C32.475,35.526,32.654,35.526,32.833,35.526Z" transform="translate(39.342 45.629)" fill="#037c5a" fill-rule="evenodd"/>
            <path id="Path-129" data-name="Path" d="M11.863,35.526h7.52c7.52,0,14.861,0,22.381.18h5.013c.179.18.358,0,.537.18,0,.18-.179.361-.179.541a15.5,15.5,0,0,1-3.76,4.689,19.9,19.9,0,0,1-9.31,4.689,18.1,18.1,0,0,1-6.266.361,22.083,22.083,0,0,1-6.8-1.623,21.068,21.068,0,0,1-7.162-4.509,9.616,9.616,0,0,1-2.328-3.607c0-.18-.179-.18-.179-.361-.179-.361,0-.361.358-.361C11.505,35.526,11.684,35.526,11.863,35.526Z" transform="translate(12.686 45.629)" fill="#037c5a" fill-rule="evenodd"/>
            <path id="Path-130" data-name="Path" d="M59.506,71.644c.716-.18,1.253-.361,1.969-.541.537-.18.537-.361.358-.9-2.507-9.378-5.013-18.936-7.52-28.314C52.7,35.756,51.09,29.624,49.479,23.673a.665.665,0,0,0-.179-.541,6.053,6.053,0,0,1,1.79.18c.179,0,.179,0,.179.18h0a10.383,10.383,0,0,0,.716,2.525c2.686,10.46,5.55,21.1,8.236,31.56,1.074,4.509,2.328,8.837,3.4,13.346v.18c0,.361,0,.361-.358.361a6.052,6.052,0,0,1-1.79.18,3.585,3.585,0,0,1-1.969,0Z" transform="translate(61.549 29.71)" fill="#f1c250" fill-rule="evenodd"/>
            <path id="Path-131" data-name="Path" d="M7.549,71.024a8.839,8.839,0,0,1-3.76-.18c-.537-.18-.537-.18-.358-.541,1.611-6.132,3.4-12.263,5.013-18.4,2.507-8.837,4.834-17.674,7.341-26.33.179-.721.358-1.443.537-1.984a.386.386,0,0,1,.358-.361,4.92,4.92,0,0,0,1.611-.18c0,.18-.179.361-.179.541-3.939,14.067-7.7,28.134-11.638,42.381L5.4,69.762c-.179.541,0,.721.537.9a3.556,3.556,0,0,1,1.611.361c0-.18.179-.18,0,0Z" transform="translate(2.498 29.608)" fill="#f1c250" fill-rule="evenodd"/>
            <path id="Path-132" data-name="Path" d="M8.885,71.847a13.312,13.312,0,0,1-3.76-.361c-.179,0-.358,0-.358-.18-.179,0-.358-.18-.179-.541.358-.9.537-1.984.9-3.066,3.76-13.526,7.341-27.052,11.1-40.578.358-1.443.716-3.066,1.074-4.508.179-.541.179-.541.716-.541a3.8,3.8,0,0,1,1.432,0l-.537,1.623c-4.3,15.51-8.415,30.839-12.712,46.349v.18c-.179.361,0,.541.358.721.9.18,1.611.36,2.507.541C9.243,72.027,9.064,71.847,8.885,71.847Z" transform="translate(4.026 28.245)" fill="#f1c250" fill-rule="evenodd"/>
            <path id="Path-133" data-name="Path" d="M57.054,72.3c1.074-.361,2.149-.541,3.4-.9.179,0,.358-.18.537-.361v-.361c-.537-2.164-1.074-4.148-1.611-6.312-2.686-10.1-5.371-20.018-8.057-30.118C50.25,30.458,49.176,26.49,48.281,22.7v-.361a4.92,4.92,0,0,1,1.611.18c.179,0,.179.18.179.36a1.091,1.091,0,0,0,.179.721,1,1,0,0,0,.358.9c.179,0,.179.18.179.361,1.969,7.394,3.939,14.788,5.729,22.182,2.148,8.115,4.3,16.051,6.266,24.166.179.721.179.721-.537.9a10.82,10.82,0,0,1-4.118.541,1.506,1.506,0,0,0-1.074-.361Z" transform="translate(60.24 28.696)" fill="#f1c250" fill-rule="evenodd"/>
            <path id="Path-134" data-name="Path" d="M29.806,26.388l-.179.18V72.015c0,.18,0,.18.179.18,0,0-.179.18-.179,0V21.158A13.329,13.329,0,0,1,31.776,23.5a9.845,9.845,0,0,0-1.611,1.262c-.358.18-.358.361-.537.721A7.867,7.867,0,0,0,29.806,26.388Z" transform="translate(36.281 27.175)" fill="#f1c250" fill-rule="evenodd"/>
            <path id="Path-135" data-name="Path" d="M30.5,25.1a19.023,19.023,0,0,0-1.97-1.623c.716-.721,1.253-1.443,1.97-2.164Z" transform="translate(34.872 27.377)" fill="#f1c250" fill-rule="evenodd"/>
            <path id="Path-136" data-name="Path" d="M6.427,43.917c.179-.18.358,0,.358-.18a.654.654,0,0,1,.537.18C7.143,43.917,6.785,44.1,6.427,43.917Z" transform="translate(6.484 56.174)" fill="#b6832c" fill-rule="evenodd"/>
            <path id="Path-137" data-name="Path" d="M5.173,44.129h0c.179-.18.179-.18.358,0Z" transform="translate(4.873 56.504)" fill="#c9b22d" fill-rule="evenodd"/>
            <path id="Path-138" data-name="Path" d="M53.969,44.368h0c-.179.18-.179.18-.358,0Z" transform="translate(67.085 56.985)" fill="#bd9f2f" fill-rule="evenodd"/>
            <path id="Path-139" data-name="Path" d="M52.222,44.286h0c0,.18-.179.18-.179,0S52.222,44.106,52.222,44.286Z" transform="translate(65.072 56.707)" fill="#a8842e" fill-rule="evenodd"/>
            <path id="Path-140" data-name="Path" d="M40.208,18.6h0c.179-.18.179,0,0,0Z" transform="translate(49.871 23.783)" fill="#877b30" fill-rule="evenodd"/>
            <path id="Path-141" data-name="Path" d="M40.208,18.553h.358l-.179.18C40.208,18.733,40.208,18.733,40.208,18.553Z" transform="translate(49.871 23.828)" fill="#d0a22b" fill-rule="evenodd"/>
            <path id="Path-142" data-name="Path" d="M27.531,55.88a1.137,1.137,0,0,1-1.074.9.982.982,0,0,1-1.074-.721c-.179-.18-.179-.361.179-.361A3.533,3.533,0,0,1,27.531,55.88Z" transform="translate(30.679 71.443)" fill="#037c5a" fill-rule="evenodd"/>
            <path id="Path-143" data-name="Path" d="M46.959,54.7a2.512,2.512,0,0,1-1.612.18c-.179,0-.358,0-.358-.18a.386.386,0,0,1,.358-.361C45.705,53.794,46.6,53.974,46.959,54.7Z" transform="translate(56.012 69.382)" fill="#037c5a" fill-rule="evenodd"/>
            <path id="Path-144" data-name="Path" d="M33.478,57.015c-.716,0-.716-.18-.716-.721a2.5,2.5,0,0,1,1.074-1.984c.358-.361.537-.361.9,0a3.234,3.234,0,0,1,.9,1.262v.541c-.179.361-.358.541-.716.541A5.5,5.5,0,0,1,33.478,57.015Z" transform="translate(40.308 69.407)" fill="#037c5a" fill-rule="evenodd"/>
            <path id="Path-145" data-name="Path" d="M33.2,49.139a.387.387,0,0,1-.358-.361c0-.361.179-.541.358-.541s.358.18.358.541C33.736,48.958,33.378,49.139,33.2,49.139Z" transform="translate(40.409 61.954)" fill="#037c5a" fill-rule="evenodd"/>
            <path id="Path-146" data-name="Path" d="M33.591,48.595c.179,0,.358.18.179.18,0,.18-.179.18-.358.18s-.179,0-.179-.18C33.411,48.595,33.411,48.414,33.591,48.595Z" transform="translate(40.912 62.318)" fill="#037c5a" fill-rule="evenodd"/>
            <path id="Path-147" data-name="Path" d="M20.677,13.861c-.179,0-.358,0-.179-.18,0-.18.179-.18.358-.18s.358,0,.179.18C21.036,13.861,20.856,13.861,20.677,13.861Z" transform="translate(24.462 17.339)" fill="#e8f1f1" fill-rule="evenodd"/>
            <path id="Path-148" data-name="Path" d="M19.326,14.786a.176.176,0,0,1-.179.18c-.179,0-.179,0-.179-.18s.179-.18.358-.18Z" transform="translate(22.591 18.759)" fill="#ddeae9" fill-rule="evenodd"/>
            <path id="Path-149" data-name="Path" d="M44.115,15.891a.176.176,0,0,1-.179.18c-.179,0-.358,0-.358-.18s0-.18.179-.18C44.115,15.71,44.115,15.71,44.115,15.891Z" transform="translate(54.2 20.178)" fill="#e0e8e8" fill-rule="evenodd"/>
            <path id="Path-150" data-name="Path" d="M43.253,16.759a.176.176,0,0,1-.179.18c-.179,0-.358,0-.358-.18a.176.176,0,0,1,.179-.18C43.074,16.579,43.253,16.579,43.253,16.759Z" transform="translate(53.093 21.293)" fill="#d4dfdf" fill-rule="evenodd"/>
            <path id="Path-151" data-name="Path" d="M19.281,12.237a.386.386,0,0,1,.358.361s0,.18-.179,0c-.179,0-.179-.18-.179-.361Z" transform="translate(22.993 15.717)" fill="#ced4d4" fill-rule="evenodd"/>
          </g>
        </g>
      </g>
    </g>
  </g>
</svg>
