<svg xmlns="http://www.w3.org/2000/svg" width="58.889" height="58.889" viewBox="0 0 58.889 58.889">
  <path id="Icon_material-account-circle" data-name="Icon material-account-circle" d="M32.445,3A29.445,29.445,0,1,0,61.889,32.445,29.455,29.455,0,0,0,32.445,3Zm0,8.833a8.833,8.833,0,1,1-8.833,8.833A8.822,8.822,0,0,1,32.445,11.833Zm0,41.812a21.2,21.2,0,0,1-17.667-9.481c.088-5.86,11.778-9.069,17.667-9.069,5.86,0,17.579,3.209,17.667,9.069a21.2,21.2,0,0,1-17.667,9.481Z" transform="translate(-3 -3)" fill="#fff"/>
</svg>
