<svg xmlns="http://www.w3.org/2000/svg" width="31.234" height="32.807" viewBox="0 0 31.234 32.807">
  <path id="ticket-alt" d="M6.083,9.062H21.291v9.125H6.083Zm19.01,4.562a2.281,2.281,0,0,0,2.281,2.281v4.562a2.281,2.281,0,0,1-2.281,2.281H2.281A2.281,2.281,0,0,1,0,20.468V15.906a2.281,2.281,0,0,0,2.281-2.281A2.281,2.281,0,0,0,0,11.344V6.781A2.281,2.281,0,0,1,2.281,4.5H25.093a2.281,2.281,0,0,1,2.281,2.281v4.562A2.281,2.281,0,0,0,25.093,13.625ZM22.812,8.682a1.141,1.141,0,0,0-1.141-1.141H5.7A1.141,1.141,0,0,0,4.562,8.682v9.885A1.141,1.141,0,0,0,5.7,19.708H21.671a1.141,1.141,0,0,0,1.141-1.141Z" transform="translate(-3.546 18.801) rotate(-52)" fill="#fff"/>
</svg>
