<svg xmlns="http://www.w3.org/2000/svg" width="94.775" height="82.928" viewBox="0 0 94.775 82.928">
  <path id="wallet1" d="M85.371,20.02H14.809a2.962,2.962,0,0,1,0-5.923H85.889a2.961,2.961,0,0,0,2.962-2.962A8.885,8.885,0,0,0,79.966,2.25H11.847A11.846,11.846,0,0,0,0,14.1V73.331A11.846,11.846,0,0,0,11.847,85.178H85.371a9.164,9.164,0,0,0,9.4-8.885V28.905A9.164,9.164,0,0,0,85.371,20.02ZM77,58.522A5.923,5.923,0,1,1,82.928,52.6,5.924,5.924,0,0,1,77,58.522Z" transform="translate(0 -2.25)" fill="#c9cae8"/>
</svg>
